<svg version="1.2" baseProfile="tiny-ps" xmlns="http://www.w3.org/2000/svg" viewBox="0 0 1402 272" width="1402" height="272">
	<title>Layer 1</title>
	<style>
		tspan { white-space:pre }
		.shp0 { fill: #4380a7 } 
	</style>
	<g id="Layer 1">
		<path id="&lt;Compound Path&gt;" fill-rule="evenodd" class="shp0" d="M1402.07 182.68C1392.06 233.18 1347.52 271.26 1294.08 271.26C1241.18 271.26 1196.99 233.93 1186.4 184.17C1175.83 233.97 1131.63 271.34 1078.69 271.34C1017.88 271.34 968.58 222.04 968.58 161.23C968.58 136.55 976.7 113.78 990.41 95.42L732.84 196.69C747.47 215.34 771.09 223.77 795.16 214.61C807.67 209.84 816.78 201.65 822.35 191.59L942.93 144.18L942.93 263.63L881.3 263.63L881.3 184.89C870.48 234.32 826.46 271.34 773.76 271.34C717.75 271.34 671.52 229.5 664.59 175.36L664.59 263.63L602.73 263.63L602.73 150.73C602.73 136.2 602.73 102.62 570.33 102.62C565.49 102.62 559.8 103.55 553.78 105.95C553.35 106.12 476.75 136.23 324 196.26C338.61 215.21 362.39 223.83 386.64 214.61C399.44 209.73 408.67 201.26 414.21 190.91L534.93 143.38C534.83 145.38 534.83 185.46 534.93 263.63L472.82 263.63L472.82 184.8C462.02 234.27 417.98 271.34 365.26 271.34C305.2 271.34 256.4 223.25 255.2 163.48C245.38 224.62 192.39 271.34 128.48 271.34C57.58 271.34 0.12 213.87 0.12 142.98C0.12 72.06 57.58 14.6 128.48 14.6C169.22 14.6 205.49 33.59 229.02 63.18L169.86 86.43C151.15 70.27 125.68 64.36 99.81 74.21C60.67 89.09 47.18 129.88 62.42 168.04C77.67 206.2 115.87 227.28 154.99 212.39C182.8 201.82 197.65 178.14 198.44 151.64L140.8 174.31L126.15 137.07L245.5 90.22C252.65 106.05 256.71 123.6 256.84 142.07C265.92 90.38 310.99 51.11 365.26 51.11C417.98 51.11 462.02 88.17 472.82 137.66L472.82 56.84L530.84 56.84L530.84 79.9C537.92 68.29 550.95 49.76 587.84 49.76C636.24 49.76 664.59 84.84 664.59 134.34L664.59 147.1C671.52 92.96 717.75 51.11 773.76 51.11C827.51 51.11 872.08 90.27 881.3 138.23L881.3 25.24L942.93 0.06L942.93 56.88L990.89 56.88L990.89 94.79C1010.99 68.27 1042.83 51.11 1078.69 51.11C1131.6 51.11 1175.78 88.5 1186.37 138.25C1196.93 88.46 1241.14 51.03 1294.08 51.03C1337.75 51.03 1375.49 76.45 1393.29 113.32L1341.04 133.86C1330.58 113.84 1311.82 101.14 1290.98 101.21C1285.41 101.23 1278.85 101.97 1271.32 104.86L1037.85 196.79C1052.48 215.38 1076.05 223.75 1100.09 214.61C1112.52 209.87 1121.6 201.74 1127.18 191.77L1238.79 147.89C1237.76 157.83 1239.28 168.49 1243.45 178.93C1255.56 209.25 1285.41 226.22 1315.74 214.69C1334.83 207.43 1345.94 191.96 1348.54 173.9L1402.07 182.68ZM812.23 122.47C797.5 105.91 775.13 98.85 752.38 107.51C729.23 116.32 717.67 136.85 718.76 159.22L812.23 122.47ZM403.35 122.06C388.61 105.8 366.45 98.93 343.87 107.51C320.9 116.25 309.35 136.52 310.22 158.68L403.35 122.06ZM1023.69 159.36L1117.26 122.57C1102.51 105.94 1080.12 98.84 1057.31 107.51C1034.1 116.34 1022.55 136.94 1023.69 159.36Z" />
	</g>
</svg>