<?xml version="1.0" encoding="utf-8"?>
<!-- Generator: Adobe Illustrator 22.1.0, SVG Export Plug-In . SVG Version: 6.00 Build 0)  -->
<svg version="1.1" id="Layer_1" xmlns="http://www.w3.org/2000/svg" xmlns:xlink="http://www.w3.org/1999/xlink" x="0px" y="0px"
	 viewBox="0 0 310 83" style="enable-background:new 0 0 310 83;" xml:space="preserve">
<style type="text/css">
	.st0{fill:#001E60;}
</style>
<title>icons/logo</title>
<desc>Created with Sketch.</desc>
<g id="Clip-14">
</g>
<g>
	<path class="st0" d="M13.3,52.3c1.7,0,3.3,0.4,4.6,1.1c1.3,0.7,2.5,1.9,3.7,3.4h2.9c-1.1-2.2-2.7-3.9-4.6-5.1
		c-1.9-1.1-4.1-1.7-6.5-1.7c-1.7,0-3.2,0.3-4.7,0.9c-1.5,0.6-2.7,1.5-3.9,2.7c-1.2,1.2-2.2,2.6-2.8,4.1c-0.7,1.5-1,3.1-1,4.8
		c0,3.7,1.2,6.7,3.6,9.2c2.4,2.5,5.4,3.7,8.9,3.7c2.3,0,4.5-0.5,6.3-1.7s3.3-2.7,4.5-4.8h-2.9c-1,1.4-2.1,2.4-3.5,3.1
		C16.5,72.6,15,73,13.3,73c-2.7,0-5.1-1-7-3.1c-1.9-2-2.9-4.5-2.9-7.4c0-2.8,1-5.1,2.9-7.2C8.3,53.3,10.6,52.3,13.3,52.3z"/>
	<path class="st0" d="M36,55.8h-0.1c-2.5,0-4.7,0.9-6.5,2.9c-1.9,1.9-2.8,4.2-2.8,6.9c0,2.7,0.9,5,2.8,6.9c1.8,1.9,4.1,2.9,6.7,2.9
		H36c2.6,0,4.9-1,6.7-2.9c1.9-1.9,2.8-4.3,2.8-7c0-2.6-0.9-4.9-2.9-6.8C40.8,56.8,38.6,55.8,36,55.8z M41,70.9c-1.4,1.4-3,2.1-5,2.1
		H36c-1.9,0-3.6-0.7-4.9-2.1c-1.4-1.5-2.1-3.2-2.1-5.3s0.7-3.9,2.1-5.3c1.3-1.5,2.9-2.1,4.8-2.1H36c2.1,0,3.7,0.7,5,2.1
		c1.3,1.4,2.1,3.2,2.1,5.3C43,67.7,42.4,69.5,41,70.9z"/>
	<path class="st0" d="M69.1,56c-1.3,0-2.6,0.3-3.7,0.8c-1.1,0.6-2.1,1.4-2.8,2.4c-0.6-0.9-1.5-1.7-2.6-2.3c-1.2-0.6-2.5-0.9-3.9-0.9
		c-1.2,0-2.3,0.2-3.2,0.6c-0.9,0.4-1.8,1-2.5,1.9v-2.1h-2.3v18.4h2.3v-9c0-1.6,0.1-2.7,0.1-3.3c0.1-0.7,0.3-1.2,0.6-1.7
		c0.5-0.8,1.1-1.4,1.9-1.9c0.8-0.4,1.7-0.6,2.8-0.6c1.8,0,3.1,0.5,4,1.5c0.8,1.1,1.3,2.6,1.3,4.7v10.3h2.2v-9c0-1.6,0.1-2.7,0.2-3.3
		c0.1-0.7,0.3-1.2,0.6-1.7c0.5-0.8,1.1-1.4,1.9-1.9c0.8-0.4,1.7-0.6,2.8-0.6c1.8,0,3.1,0.5,3.9,1.5c0.8,1,1.2,2.7,1.2,5.2v9.8h2.3
		v-9.3c0-3.3-0.6-5.7-1.7-7.2C73.4,56.8,71.6,56,69.1,56z"/>
	<path class="st0" d="M100.9,56c-1.3,0-2.6,0.3-3.7,0.8c-1.1,0.6-2.1,1.4-2.8,2.4c-0.6-0.9-1.4-1.7-2.6-2.3C90.7,56.3,89.4,56,88,56
		c-1.2,0-2.3,0.2-3.2,0.6c-1,0.4-1.8,1-2.5,1.9v-2.1H80v18.4h2.3v-9c0-1.6,0-2.7,0.1-3.3c0.1-0.7,0.3-1.2,0.6-1.7
		c0.5-0.8,1.1-1.4,1.9-1.9c0.8-0.4,1.7-0.6,2.8-0.6c1.8,0,3.1,0.5,3.9,1.5c0.9,1.1,1.3,2.6,1.3,4.7v10.3h2.1v-9
		c0-1.6,0.1-2.7,0.2-3.3c0.1-0.7,0.3-1.2,0.6-1.7c0.5-0.8,1.1-1.4,1.9-1.9c0.8-0.4,1.7-0.6,2.8-0.6c1.8,0,3.1,0.5,3.9,1.5
		c0.8,1,1.2,2.7,1.2,5.2v9.8h2.3v-9.3c0-3.3-0.6-5.7-1.7-7.2C105.2,56.8,103.4,56,100.9,56z"/>
	<path class="st0" d="M124.8,65.5c0,1.6-0.1,2.7-0.2,3.4c-0.1,0.7-0.3,1.2-0.6,1.7c-0.5,0.9-1.1,1.5-1.9,1.9
		c-0.8,0.5-1.7,0.7-2.8,0.7c-1.8,0-3.2-0.5-4-1.6c-0.8-1-1.2-2.8-1.2-5.3v-9.8h-2.3V66c0,3.3,0.6,5.7,1.7,7.1
		c1.2,1.5,3.1,2.1,5.7,2.1c1.3,0,2.3-0.2,3.2-0.6c0.9-0.3,1.7-1,2.4-1.9v2h2.3V56.4h-2.3V65.5z"/>
	<path class="st0" d="M145,58.9c-0.6-0.9-1.5-1.6-2.5-2.1c-1.1-0.5-2.3-0.7-3.6-0.7c-1.3,0-2.3,0.2-3.3,0.6c-1,0.4-1.8,1-2.5,1.9
		v-2.1h-2.3v18.4h2.3v-9c0-1.6,0.1-2.7,0.2-3.3c0.1-0.7,0.3-1.2,0.6-1.7c0.5-0.8,1.1-1.4,1.9-1.9c0.9-0.4,1.8-0.6,2.9-0.6
		c1.8,0,3.1,0.5,3.9,1.5c0.9,0.9,1.3,2.5,1.3,4.7v10.3h2.3v-9.6c0-1.7-0.1-3.1-0.3-3.9C145.7,60.4,145.4,59.6,145,58.9z"/>
	<rect x="150" y="50.4" class="st0" width="2.3" height="3.8"/>
	<rect x="150" y="56.4" class="st0" width="2.3" height="18.4"/>
	<polygon class="st0" points="171.4,71.3 165.7,56.4 163.6,56.4 163.6,56.4 160,56.4 160,50.4 157.7,50.4 157.7,56.4 154.3,56.4 
		154.3,58.8 157.7,58.8 157.7,74.8 160,74.8 160,58.8 163.6,58.8 163.6,57.9 170.1,74.8 167.6,80.8 170.2,80.8 180.1,56.4 
		177.4,56.4 	"/>
	<path class="st0" d="M202.3,52.3c1.7,0,3.3,0.4,4.6,1.1c1.3,0.7,2.6,1.9,3.7,3.4h2.9c-1.1-2.2-2.7-3.9-4.6-5.1
		c-1.9-1.1-4.1-1.7-6.5-1.7c-1.7,0-3.2,0.3-4.7,0.9c-1.4,0.6-2.7,1.5-3.9,2.7c-1.3,1.2-2.2,2.6-2.9,4.1c-0.7,1.5-1,3.1-1,4.8
		c0,3.7,1.2,6.7,3.6,9.2c2.4,2.5,5.4,3.7,8.9,3.7c2.3,0,4.5-0.5,6.3-1.7c1.9-1.1,3.3-2.7,4.5-4.8h-2.8c-1.1,1.4-2.2,2.4-3.6,3.1
		c-1.3,0.7-2.9,1.1-4.5,1.1c-2.7,0-5.1-1-6.9-3.1c-1.9-2-2.9-4.5-2.9-7.4c0-2.8,0.9-5.1,2.9-7.2C197.3,53.3,199.6,52.3,202.3,52.3z"
		/>
	<path class="st0" d="M225,55.8h-0.1c-2.5,0-4.7,0.9-6.6,2.9c-1.9,1.9-2.8,4.2-2.8,6.9c0,2.7,0.9,5,2.8,6.9c1.8,1.9,4.1,2.9,6.7,2.9
		c2.7,0,4.9-1,6.7-2.9c1.8-1.9,2.7-4.3,2.7-7c0-2.6-0.9-4.9-2.8-6.8C229.8,56.8,227.6,55.8,225,55.8z M230,70.9
		c-1.3,1.4-3,2.1-5,2.1s-3.7-0.7-5-2.1c-1.3-1.5-2-3.2-2-5.3s0.7-3.9,2-5.3c1.3-1.5,2.9-2.1,4.8-2.1h0.2c2,0,3.7,0.7,4.9,2.1
		c1.4,1.4,2.1,3.2,2.1,5.3C232,67.7,231.3,69.5,230,70.9z"/>
	<rect x="237.3" y="50.4" class="st0" width="2.3" height="24.4"/>
	<rect x="243.5" y="50.4" class="st0" width="2.3" height="24.4"/>
	<path class="st0" d="M258.2,55.9H258c-2.7,0-4.9,0.9-6.7,2.7c-1.8,1.8-2.7,4.1-2.7,6.9c0,2.7,0.9,4.9,2.8,6.9
		c1.8,1.9,4.1,2.8,6.7,2.9h0.1c2,0,3.8-0.5,5.3-1.7c1.5-1.1,2.7-2.6,3.5-4.7h-2.7c-0.6,1.3-1.5,2.3-2.5,3c-1.1,0.7-2.4,1.1-3.7,1.1
		H258c-1.9,0-3.5-0.6-4.8-1.9c-1.3-1.2-2.1-2.9-2.2-4.9h7h9.6v-0.1c0-3.1-0.9-5.5-2.6-7.4C263.2,56.8,261,55.9,258.2,55.9z
		 M258,64.4h-6.9c0.3-1.9,1-3.5,2.3-4.6c1.3-1.1,2.7-1.7,4.5-1.7h0.1c1.9,0.1,3.3,0.5,4.5,1.6c1.2,1,2,2.6,2.5,4.7H258z"/>
	<path class="st0" d="M285.7,59.4c-0.9-1.1-1.9-2-3-2.6c-1.1-0.5-2.5-0.8-4-0.8c-2.7,0-4.9,0.9-6.7,2.7c-1.8,1.9-2.7,4.1-2.7,6.8
		c0,2.8,0.9,5.1,2.7,6.9c1.8,1.8,4.1,2.7,6.7,2.7h0.2c1.3,0,2.6-0.3,3.7-0.9c1.1-0.6,2.1-1.5,3.1-2.7V72c0,2.3-0.7,4.2-1.9,5.6
		c-1.3,1.4-2.9,2.1-5,2.1h-0.1c-1.3-0.1-2.4-0.3-3.3-0.9c-0.9-0.6-1.6-1.4-1.9-2.5h-2.8c0.5,1.7,1.4,3.1,2.9,4.1
		c1.5,1,3.1,1.5,5.1,1.5h0.2c2.9,0,5.1-0.9,6.7-2.7c1.6-1.8,2.4-4.3,2.4-7.6V56.4h-2.3V59.4z M283.6,70.9c-1.4,1.5-3,2.1-4.8,2.1
		h-0.1c-1.9,0-3.5-0.7-4.9-2.1c-1.4-1.5-2.1-3.3-2.1-5.4c0-2.1,0.7-3.8,2.1-5.2c1.3-1.4,3-2.1,4.9-2.1h0.1c1.9,0,3.5,0.7,4.9,2.2
		c1.3,1.5,2,3.3,2,5.4C285.6,67.7,285,69.4,283.6,70.9z"/>
	<path class="st0" d="M309.7,66.3v-0.1c0-3.1-0.9-5.5-2.7-7.4c-1.7-1.9-3.9-2.9-6.7-2.9h-0.2c-2.7,0-5,0.9-6.7,2.7
		c-1.8,1.8-2.7,4.1-2.7,6.9c0,2.7,0.9,4.9,2.8,6.9c1.8,1.9,4.1,2.8,6.7,2.9h0.1c2,0,3.7-0.5,5.3-1.7c1.5-1.1,2.7-2.6,3.6-4.7h-2.7
		c-0.6,1.3-1.5,2.3-2.6,3c-1.1,0.7-2.3,1.1-3.7,1.1h-0.1c-1.9,0-3.5-0.6-4.9-1.9c-1.3-1.2-2-2.9-2.1-4.9h7H309.7z M293.2,64.4
		c0.3-1.9,1-3.5,2.3-4.6c1.3-1.1,2.7-1.7,4.5-1.7h0.1c1.9,0.1,3.3,0.5,4.5,1.6c1.2,1,2,2.6,2.5,4.7h-7H293.2z"/>
	<path class="st0" d="M206.5,39.5c18.6,0,18.6-28.3,0-28.3C187.9,11.2,187.9,39.5,206.5,39.5z M206.5,17.4c10.4,0,10.4,15.9,0,15.9
		C196.1,33.3,196.1,17.4,206.5,17.4z"/>
	<path class="st0" d="M175.6,27.5l2.9,5l3.2,5.4h8.2l-7.3-10.8c1.9-0.4,3.4-1.3,4.4-2.6c1-1.3,1.5-3,1.5-5.1c0-1.4-0.3-2.6-0.8-3.7
		c-0.5-1.1-1.2-2.1-2.2-2.8c-0.8-0.7-1.9-1.1-3-1.4c-0.8-0.2-2.2-0.3-4-0.4c-0.7,0-1.4,0-2.2,0h-7.5V38h6.8V27.5z M175.6,16.9h1.5
		c0.5,0,1,0,1.5,0.1c0.8,0.1,1.5,0.4,1.9,0.8c0.7,0.6,1,1.5,1,2.9c0,1.1-0.4,2-1.1,2.5c-0.5,0.3-1,0.5-1.8,0.7
		c-0.5,0.1-1,0.1-1.6,0.1h-1.3V16.9z"/>
	<path class="st0" d="M226.8,35.3c0.9,1,2.2,1.9,3.8,2.4c1.6,0.5,3.5,0.8,5.8,0.8c2.3,0,4.2-0.2,5.8-0.8c1.6-0.5,2.9-1.4,3.8-2.4
		c0.8-1,1.5-2.2,1.8-3.6c0.4-1.4,0.5-3.6,0.5-6.5V11.2H241v11.2v1.8c0,1.9,0,3.3-0.1,4.1c-0.1,0.8-0.2,1.5-0.5,2.1
		c-0.3,0.7-0.8,1.2-1.5,1.5c-0.7,0.3-1.5,0.5-2.5,0.5c-1,0-1.8-0.2-2.5-0.5c-0.7-0.4-1.2-0.9-1.5-1.5c-0.2-0.6-0.4-1.3-0.5-2.1
		c-0.1-0.8-0.1-2.2-0.1-4.1v-13h-7.2v11.3v2.8c0,2.9,0.2,5.1,0.5,6.5C225.4,33.2,226,34.3,226.8,35.3z"/>
	<path class="st0" d="M280.9,23.1h-15.6v5.1h9.2c-3.5,8-15.7,5.6-15.7-3.3c0-7.6,9.2-10.9,14.1-5.7h7C274,5,252.5,9.1,252.5,24.7
		C252.5,44.6,283.1,42.7,280.9,23.1z"/>
	<rect x="37.2" y="11.3" class="st0" width="7.3" height="26.7"/>
	<polygon class="st0" points="292.1,27.1 301.8,27.1 301.8,38 309.1,38 309.1,11.3 301.8,11.3 301.8,21.6 292.1,21.6 292.1,11.3 
		284.9,11.3 284.9,38 292.1,38 	"/>
	<path class="st0" d="M149.9,38.8c18.5,0,18.5-28.4,0-28.4C131.3,10.4,131.3,38.8,149.9,38.8z M149.9,16.6c10.4,0,10.4,15.9,0,15.9
		C139.5,32.6,139.5,16.6,149.9,16.6z"/>
	<polygon class="st0" points="86.4,31.7 77.4,31.7 77.4,11.3 70.2,11.3 70.2,38 86.4,38 	"/>
	<polygon class="st0" points="66.6,31.7 57.6,31.7 57.6,11.3 50.4,11.3 50.4,38 66.6,38 	"/>
	<path class="st0" d="M94.7,29.9h-5.6c0.7,11.9,17.6,11.2,17.6-0.1c0-9.5-11.3-7.5-11.3-11.3c0-2.7,3.8-3.2,4.2,0h5.9
		c-0.6-10.8-15.8-10.1-15.8,0c0,4,2.4,6.4,6,7.5c2.1,0.7,5.3,1.1,5.3,3.9C100.9,33.9,95.3,34.3,94.7,29.9z"/>
	<path class="st0" d="M121.6,37.9c1.9,0,3.3-0.1,4.2-0.3c1.3-0.2,2.5-0.5,3.4-1c1.1-0.6,2-1.4,2.5-2.5c0.6-1.1,0.9-2.3,0.9-3.8
		c0-2-0.5-3.6-1.6-4.7c-1.1-1.2-2.6-1.9-4.5-2c1.7-0.5,2.9-1.1,3.7-2.1c0.7-0.9,1.1-2.1,1.1-3.6c0-1.2-0.3-2.3-0.8-3.2
		c-0.5-0.9-1.3-1.7-2.2-2.2c-0.9-0.5-1.9-0.8-3.1-1c-0.8-0.1-2.1-0.2-3.8-0.3c-0.8,0-1.6,0-2.5,0h-7.3V38h7.5
		C120.1,38,120.9,38,121.6,37.9z M118.5,16.6h1.6c0.5,0,1,0,1.5,0c1,0.1,1.7,0.3,2.1,0.5c0.6,0.4,1,1.1,1,2.1c0,1-0.3,1.7-1,2.1
		c-0.5,0.3-1.2,0.5-2.1,0.5c-0.5,0-1,0-1.6,0h-1.5V16.6z M118.5,26.7h2.7h0.4c1.5,0,2.6,0.3,3.2,0.7c0.7,0.5,1,1.2,1,2.3
		c0,1-0.4,1.8-1.1,2.2c-0.6,0.4-1.7,0.6-3.1,0.6h-0.5h-2.5V26.7z"/>
	<polygon class="st0" points="10,22.6 22.5,22.6 22.5,38 31.8,38 31.8,0.2 22.5,0.2 22.5,14.2 10,14.2 10,0.2 0.7,0.2 0.7,38 10,38 
			"/>
	<rect x="0.7" y="44" class="st0" width="308.3" height="2"/>
</g>
</svg>
