<?xml version="1.0" encoding="UTF-8" standalone="no"?>
<!-- Created with Inkscape (http://www.inkscape.org/) -->

<svg
   xmlns:dc="http://purl.org/dc/elements/1.1/"
   xmlns:cc="http://creativecommons.org/ns#"
   xmlns:rdf="http://www.w3.org/1999/02/22-rdf-syntax-ns#"
   xmlns:svg="http://www.w3.org/2000/svg"
   xmlns="http://www.w3.org/2000/svg"
   xmlns:sodipodi="http://sodipodi.sourceforge.net/DTD/sodipodi-0.dtd"
   xmlns:inkscape="http://www.inkscape.org/namespaces/inkscape"
   width="144.7756"
   height="37.495911"
   viewBox="0 0 38.305213 9.9207932"
   version="1.1"
   id="svg10285"
   inkscape:version="0.92.0 r15299"
   sodipodi:docname="life point health.svg">
  <defs
     id="defs10279">
    <clipPath
       id="clipPath8070"
       clipPathUnits="userSpaceOnUse">
      <path
         inkscape:connector-curvature="0"
         id="path8068"
         d="M 27,48.666 H 134.948 V 89.761 H 27 Z" />
    </clipPath>
  </defs>
  <sodipodi:namedview
     id="base"
     pagecolor="#ffffff"
     bordercolor="#666666"
     borderopacity="1.0"
     inkscape:pageopacity="0.0"
     inkscape:pageshadow="2"
     inkscape:zoom="6.2388883"
     inkscape:cx="71.887808"
     inkscape:cy="18.247956"
     inkscape:document-units="mm"
     inkscape:current-layer="layer1"
     showgrid="false"
     fit-margin-top="0"
     fit-margin-left="0"
     fit-margin-right="0"
     fit-margin-bottom="0"
     units="px"
     inkscape:window-width="1280"
     inkscape:window-height="744"
     inkscape:window-x="-4"
     inkscape:window-y="-4"
     inkscape:window-maximized="1" />
  <metadata
     id="metadata10282">
    <rdf:RDF>
      <cc:Work
         rdf:about="">
        <dc:format>image/svg+xml</dc:format>
        <dc:type
           rdf:resource="http://purl.org/dc/dcmitype/StillImage" />
        <dc:title></dc:title>
      </cc:Work>
    </rdf:RDF>
  </metadata>
  <g
     inkscape:label="Layer 1"
     inkscape:groupmode="layer"
     id="layer1"
     transform="translate(6.5674715,-141.32014)">
    <path
       inkscape:connector-curvature="0"
       id="path8074"
       style="fill:#4b4f52;fill-opacity:1;fill-rule:nonzero;stroke:none;stroke-width:0.35277778"
       d="m 24.18353,148.20547 c 0.0441,0 0.07408,-0.0173 0.07408,-0.0543 0,-0.0325 -0.02611,-0.0533 -0.06421,-0.0533 h -0.09313 v 0.1076 z m -0.141111,-0.15628 h 0.158397 c 0.08855,0 0.118181,0.055 0.118181,0.0938 0,0.0579 -0.04163,0.0995 -0.101953,0.10301 v 0.002 c 0.03069,0.0106 0.05327,0.0413 0.08326,0.0892 l 0.04339,0.0699 h -0.07055 l -0.03175,-0.0561 c -0.04516,-0.0804 -0.06244,-0.096 -0.106539,-0.096 h -0.03457 v 0.15205 h -0.05785 z m 0.145344,-0.10407 c -0.153458,0 -0.277283,0.12383 -0.277283,0.27764 0,0.15381 0.123825,0.27834 0.277283,0.27834 0.153811,0 0.278695,-0.12453 0.278695,-0.27834 0,-0.15381 -0.124884,-0.27764 -0.278695,-0.27764 m 0,0.61101 c -0.18415,0 -0.332669,-0.14887 -0.332669,-0.33337 0,-0.18451 0.148519,-0.33267 0.332669,-0.33267 0.184856,0 0.334081,0.14816 0.334081,0.33267 0,0.1845 -0.149225,0.33337 -0.334081,0.33337" />
    <path
       inkscape:connector-curvature="0"
       id="path8078"
       style="fill:#002c80;fill-opacity:1;fill-rule:nonzero;stroke:none;stroke-width:0.35277778"
       d="m -5.2533759,144.23874 c 0,0.87524 0.027869,1.25624 0.1520472,1.36313 0.1107722,0.0956 0.2903361,0.13723 0.8293806,0.13723 0.3665361,0 0.6706305,-0.006 0.836436,-0.17885 0.089958,-0.0949 0.15875,-0.24413 0.1795639,-0.35702 0.00706,-0.0476 0.020814,-0.0772 0.062442,-0.0772 0.034572,0 0.041275,0.0236 0.041275,0.0892 0,0.0653 -0.048331,0.42263 -0.1037167,0.59513 -0.048331,0.13688 -0.069144,0.16087 -0.4353277,0.16087 -0.9951861,0 -1.4513278,-0.0356 -1.8524361,-0.0356 -0.062089,0 -0.4699,0.0176 -0.6773333,0.0176 -0.075847,0 -0.1104195,-0.012 -0.1104195,-0.0476 0,-0.0176 0.013758,-0.0356 0.055033,-0.0356 0.062442,0 0.1453444,-0.012 0.2074333,-0.0236 0.1382889,-0.024 0.1728611,-0.15487 0.2003778,-0.32773 0.034572,-0.24977 0.034572,-0.72037 0.034572,-1.29187 v -1.04775 c 0,-0.92887 0,-1.09573 -0.013758,-1.28623 -0.013758,-0.20214 -0.069144,-0.29739 -0.2970389,-0.33902 -0.055386,-0.0123 -0.1728611,-0.018 -0.23495,-0.018 -0.027869,0 -0.055386,-0.012 -0.055386,-0.0356 0,-0.0356 0.034572,-0.0476 0.1104194,-0.0476 0.31115,0 0.7464778,0.018 0.78105,0.018 0.034572,0 0.5390444,-0.018 0.7464778,-0.018 0.0762,0 0.1107722,0.012 0.1107722,0.0476 0,0.0236 -0.02787,0.0356 -0.055386,0.0356 -0.048331,0 -0.1449917,0.006 -0.2282473,0.018 -0.2003777,0.0296 -0.2554111,0.13088 -0.2695222,0.33902 -0.013758,0.1905 -0.013758,0.35736 -0.013758,1.28623 z" />
    <path
       inkscape:connector-curvature="0"
       id="path8082"
       style="fill:#002c80;fill-opacity:1;fill-rule:nonzero;stroke:none;stroke-width:0.35277778"
       d="m -0.77225155,144.51157 c 0,0.47625 0,0.86819 0.0289278,1.07668 0.0172861,0.14393 0.0518583,0.25294 0.22436666,0.27305 0.0807861,0.01 0.20743333,0.0197 0.25929166,0.0197 0.0345722,0 0.0462139,0.0148 0.0462139,0.0296 0,0.0247 -0.0289278,0.0399 -0.092075,0.0399 -0.31714722,0 -0.67980284,-0.0152 -0.70873057,-0.0152 -0.028575,0 -0.3915834,0.0152 -0.5644445,0.0152 -0.063147,0 -0.092075,-0.0102 -0.092075,-0.0399 0,-0.0148 0.011642,-0.0296 0.046214,-0.0296 0.051858,0 0.12065,-0.01 0.1725084,-0.0197 0.1153583,-0.0201 0.1442861,-0.12912 0.1672166,-0.27305 0.028928,-0.20849 0.028928,-0.60043 0.028928,-1.07668 v -0.87312 c 0,-0.774 0,-0.91299 -0.011642,-1.07174 -0.011642,-0.16863 -0.069144,-0.25295 -0.1957916,-0.27799 -0.0635,-0.0145 -0.1382889,-0.0194 -0.1785056,-0.0194 -0.023283,0 -0.046214,-0.0102 -0.046214,-0.03 0,-0.0296 0.028928,-0.0399 0.092075,-0.0399 0.1901472,0 0.5531556,0.0152 0.5817306,0.0152 0.028928,0 0.39158335,-0.0152 0.56444446,-0.0152 0.0635,0 0.0924278,0.0102 0.0924278,0.0399 0,0.0197 -0.0232833,0.03 -0.0462139,0.03 -0.0402167,0 -0.0747889,0.005 -0.14393333,0.0145 -0.155575,0.0251 -0.20178888,0.10936 -0.21307777,0.28293 -0.0116417,0.15875 -0.0116417,0.29774 -0.0116417,1.07174 z" />
    <path
       inkscape:connector-curvature="0"
       id="path8086"
       style="fill:#002c80;fill-opacity:1;fill-rule:nonzero;stroke:none;stroke-width:0.35277778"
       d="m 1.8541084,143.63848 c 0,-0.77399 0,-0.91299 -0.011289,-1.07174 -0.011642,-0.16863 -0.057855,-0.248 -0.2480028,-0.28293 -0.045861,-0.01 -0.1439333,-0.0148 -0.1957916,-0.0148 -0.022931,0 -0.045861,-0.01 -0.045861,-0.0296 0,-0.0296 0.028575,-0.0399 0.092075,-0.0399 0.2592916,0 0.6219472,0.0148 0.650875,0.0148 0.1150055,0 1.2844638,0 1.4167555,-0.005 0.1093611,-0.005 0.2017889,-0.005 0.2536472,-0.0201 0.034572,-0.01 0.057503,-0.0296 0.080433,-0.0296 0.022931,0 0.034572,0.0197 0.034572,0.0444 0,0.0349 -0.028575,0.0945 -0.046214,0.23318 -0.00564,0.0498 -0.016933,0.26812 -0.028575,0.32774 -0.00564,0.0247 -0.017286,0.0543 -0.046214,0.0543 -0.028575,0 -0.040217,-0.0247 -0.040217,-0.0593 0,-0.0399 -0.017286,-0.12418 -0.051858,-0.18874 -0.034572,-0.0646 -0.1668639,-0.15381 -0.3915834,-0.15875 l -0.8868833,-0.0148 c -0.034925,0 -0.051858,0.0148 -0.051858,0.0547 v 1.36913 c 0,0.0296 0.00564,0.0448 0.040217,0.0448 l 0.7373055,-0.005 c 0.097719,0 0.1785056,0 0.2589389,-0.005 0.1382889,-0.0102 0.2130778,-0.025 0.2649361,-0.0896 0.023283,-0.0247 0.040569,-0.0494 0.0635,-0.0494 0.02293,0 0.028928,0.0148 0.028928,0.0399 0,0.0296 -0.028928,0.11395 -0.046214,0.27763 -0.011642,0.0991 -0.022931,0.29775 -0.022931,0.33232 0,0.0448 0,0.0942 -0.040569,0.0942 -0.028575,0 -0.040217,-0.0198 -0.040217,-0.0445 -0.00564,-0.0497 -0.011289,-0.11924 -0.034572,-0.1785 -0.028575,-0.0695 -0.1210028,-0.15911 -0.2995083,-0.17886 -0.1439334,-0.0148 -0.7718778,-0.0148 -0.8695972,-0.0148 -0.028928,0 -0.040217,0.01 -0.040217,0.0448 v 0.42156 c 0,0.47625 0,0.86819 0.028575,1.07668 0.017286,0.14394 0.051858,0.25294 0.2247194,0.2727 0.080433,0.0102 0.2074334,0.0198 0.2592917,0.0198 0.034572,0 0.045861,0.0152 0.045861,0.03 0,0.0247 -0.028575,0.0395 -0.092075,0.0395 -0.3167944,0 -0.6798028,-0.0148 -0.7083777,-0.0148 -0.028928,0 -0.3915834,0.0148 -0.5644445,0.0148 -0.0635,0 -0.092075,-0.01 -0.092075,-0.0395 0,-0.0148 0.011289,-0.03 0.045861,-0.03 0.051858,0 0.1210028,-0.01 0.1728611,-0.0198 0.1150056,-0.0198 0.1439334,-0.12876 0.1672167,-0.2727 0.028575,-0.20849 0.028575,-0.60043 0.028575,-1.07668 z" />
    <path
       inkscape:connector-curvature="0"
       id="path8090"
       style="fill:#002c80;fill-opacity:1;fill-rule:nonzero;stroke:none;stroke-width:0.35277778"
       d="m 5.8398269,143.63848 c 0,-0.77399 0,-0.91299 -0.011642,-1.07174 -0.011289,-0.16863 -0.057503,-0.248 -0.24765,-0.28293 -0.045861,-0.01 -0.1439333,-0.0148 -0.1957916,-0.0148 -0.022931,0 -0.045861,-0.01 -0.045861,-0.0296 0,-0.0296 0.028575,-0.0399 0.092075,-0.0399 0.2592916,0 0.6219472,0.0148 0.650875,0.0148 0.040217,0 1.1863916,0 1.319036,-0.005 0.1093611,-0.005 0.2014361,-0.0152 0.24765,-0.025 0.028575,-0.005 0.051858,-0.0247 0.080433,-0.0247 0.017286,0 0.023283,0.0197 0.023283,0.0444 0,0.0349 -0.028928,0.0945 -0.046214,0.23318 -0.00564,0.0498 -0.017286,0.26812 -0.028928,0.32774 -0.00564,0.0247 -0.017286,0.0543 -0.040217,0.0543 -0.034572,0 -0.045861,-0.0247 -0.045861,-0.0642 0,-0.0349 -0.006,-0.11924 -0.034572,-0.17886 -0.040569,-0.0794 -0.098072,-0.139 -0.4092222,-0.16863 -0.097719,-0.01 -0.7256639,-0.0148 -0.7888111,-0.0148 -0.023283,0 -0.034572,0.0148 -0.034572,0.0494 v 1.36949 c 0,0.0346 0.00564,0.0497 0.034572,0.0497 0.074789,0 0.7831667,0 0.9154583,-0.0102 0.1382889,-0.01 0.219075,-0.0198 0.2709334,-0.0695 0.040217,-0.0395 0.063147,-0.0642 0.086431,-0.0642 0.017286,0 0.028575,0.01 0.028575,0.0399 0,0.0296 -0.028575,0.11395 -0.045861,0.27763 -0.011642,0.0991 -0.022931,0.28293 -0.022931,0.3175 0,0.0395 0,0.0942 -0.04057,0.0942 -0.028575,0 -0.040217,-0.0198 -0.040217,-0.0448 0,-0.0494 0,-0.0991 -0.023283,-0.16333 -0.02293,-0.0695 -0.074789,-0.15381 -0.2991555,-0.17392 -0.155575,-0.0148 -0.7260167,-0.0247 -0.8237361,-0.0247 -0.028928,0 -0.040217,0.0148 -0.040217,0.0346 v 0.43673 c 0,0.16863 -0.006,0.74401 0,0.84844 0.016933,0.34219 0.1037167,0.40675 0.6678083,0.40675 0.1499306,0 0.403225,0 0.5531556,-0.0547 0.1495777,-0.0543 0.2187222,-0.15381 0.2592916,-0.35701 0.011289,-0.0547 0.022931,-0.0744 0.051858,-0.0744 0.034572,0 0.034572,0.0395 0.034572,0.0744 0,0.0395 -0.046214,0.37712 -0.075142,0.48119 -0.040217,0.12911 -0.08643,0.12911 -0.3107972,0.12911 -0.86995,0 -1.2558889,-0.03 -1.4227527,-0.03 -0.028928,0 -0.3915834,0.0148 -0.5644445,0.0148 -0.0635,0 -0.092075,-0.01 -0.092075,-0.0395 0,-0.0148 0.011289,-0.03 0.045861,-0.03 0.051858,0 0.1210028,-0.01 0.1728611,-0.0198 0.1153584,-0.0198 0.1439334,-0.12876 0.1672167,-0.2727 0.028575,-0.20849 0.028575,-0.60043 0.028575,-1.07668 z" />
    <path
       inkscape:connector-curvature="0"
       id="path8094"
       style="fill:#002c80;fill-opacity:1;fill-rule:nonzero;stroke:none;stroke-width:0.35277778"
       d="m 10.134261,143.17888 c 0,-0.92851 0,-1.09537 -0.01376,-1.28587 -0.01411,-0.2025 -0.06914,-0.29775 -0.2973915,-0.33938 -0.055033,-0.012 -0.1725083,-0.018 -0.23495,-0.018 -0.027517,0 -0.055386,-0.0116 -0.055386,-0.0356 0,-0.0356 0.034925,-0.0476 0.1107722,-0.0476 0.3107972,0 0.7256633,0.018 0.7810493,0.018 0.152047,0 0.552803,-0.018 0.871008,-0.018 0.863953,0 1.17475,0.25012 1.285523,0.33937 0.152047,0.12488 0.345369,0.39299 0.345369,0.70838 0,0.8456 -0.718608,1.4171 -1.700389,1.4171 -0.03422,0 -0.110419,0 -0.144991,-0.006 -0.03457,0 -0.07585,-0.012 -0.07585,-0.0416 0,-0.0476 0.04127,-0.0536 0.18662,-0.0536 0.670278,0 1.195564,-0.42263 1.195564,-0.97049 0,-0.1965 -0.02081,-0.59514 -0.386998,-0.91687 -0.366536,-0.32138 -0.788105,-0.29775 -0.946855,-0.29775 -0.117475,0 -0.23495,0.012 -0.297392,0.036 -0.04128,0.0117 -0.05539,0.0533 -0.05539,0.11289 v 2.44687 c 0,0.57185 0,1.04211 0.03493,1.29222 0.02046,0.17251 0.06174,0.30339 0.269522,0.32738 0.09666,0.012 0.248709,0.0236 0.310798,0.0236 0.04163,0 0.05539,0.018 0.05539,0.036 0,0.0296 -0.03457,0.0473 -0.110773,0.0473 -0.379941,0 -0.815269,-0.0176 -0.849841,-0.0176 -0.02081,0 -0.4564941,0.0176 -0.6635746,0.0176 -0.075847,0 -0.1107722,-0.0116 -0.1107722,-0.0473 0,-0.018 0.014111,-0.036 0.055386,-0.036 0.062089,0 0.1449916,-0.0116 0.2074333,-0.0236 0.1382885,-0.024 0.1728615,-0.15487 0.2003775,-0.32738 0.03457,-0.25011 0.03457,-0.72037 0.03457,-1.29222 z" />
    <path
       inkscape:connector-curvature="0"
       id="path8098"
       style="fill:#002c80;fill-opacity:1;fill-rule:nonzero;stroke:none;stroke-width:0.35277778"
       d="m 16.445843,145.83139 c 0.518231,0 1.589617,-0.25788 1.589617,-1.7018 0,-1.19062 -0.841023,-1.83092 -1.750836,-1.83092 -0.962025,0 -1.682045,0.54575 -1.682045,1.63231 0,1.15605 0.80645,1.90041 1.843264,1.90041 m -0.121003,-3.70134 c 1.296106,0 2.263422,0.70449 2.263422,1.86055 0,1.1116 -0.909813,2.02917 -2.297994,2.02917 -1.578328,0 -2.234494,-1.05657 -2.234494,-1.9498 0,-0.80363 0.67945,-1.93992 2.269066,-1.93992" />
    <path
       inkscape:connector-curvature="0"
       id="path8102"
       style="fill:#002c80;fill-opacity:1;fill-rule:nonzero;stroke:none;stroke-width:0.35277778"
       d="m 20.754142,144.51157 c 0,0.47625 0,0.86819 0.02893,1.07668 0.01693,0.14393 0.0515,0.25294 0.224366,0.27305 0.08079,0.01 0.207434,0.0197 0.259292,0.0197 0.03457,0 0.04621,0.0148 0.04621,0.0296 0,0.0247 -0.02893,0.0399 -0.09243,0.0399 -0.316794,0 -0.679803,-0.0152 -0.708025,-0.0152 -0.02928,0 -0.391936,0.0152 -0.564797,0.0152 -0.06315,0 -0.09207,-0.0102 -0.09207,-0.0399 0,-0.0148 0.01164,-0.0296 0.04621,-0.0296 0.0515,0 0.12065,-0.01 0.172861,-0.0197 0.115006,-0.0201 0.143581,-0.12912 0.166864,-0.27305 0.02858,-0.20849 0.02858,-0.60043 0.02858,-1.07668 v -0.87312 c 0,-0.774 0,-0.91299 -0.01129,-1.07174 -0.01164,-0.16863 -0.06914,-0.25295 -0.195792,-0.27799 -0.0635,-0.0145 -0.138289,-0.0194 -0.178505,-0.0194 -0.02328,0 -0.04621,-0.0102 -0.04621,-0.03 0,-0.0296 0.02893,-0.0399 0.09243,-0.0399 0.189794,0 0.55245,0.0152 0.58173,0.0152 0.02822,0 0.391231,-0.0152 0.564092,-0.0152 0.0635,0 0.09208,0.0102 0.09208,0.0399 0,0.0197 -0.02293,0.03 -0.04586,0.03 -0.04057,0 -0.07479,0.005 -0.143934,0.0145 -0.155927,0.0251 -0.201788,0.10936 -0.213077,0.28293 -0.01164,0.15875 -0.01164,0.29774 -0.01164,1.07174 z" />
    <path
       inkscape:connector-curvature="0"
       id="path8106"
       style="fill:#002c80;fill-opacity:1;fill-rule:nonzero;stroke:none;stroke-width:0.35277778"
       d="m 23.248104,145.27565 c 0.01129,0.40675 0.06914,0.53587 0.224719,0.57573 0.109362,0.0247 0.236009,0.0296 0.287867,0.0296 0.02858,0 0.04621,0.01 0.04621,0.0296 0,0.03 -0.03457,0.0399 -0.104069,0.0399 -0.328084,0 -0.558448,-0.0148 -0.610306,-0.0148 -0.05186,0 -0.293864,0.0148 -0.552803,0.0148 -0.0575,0 -0.09243,-0.005 -0.09243,-0.0399 0,-0.0198 0.01729,-0.0296 0.04621,-0.0296 0.04621,0 0.149931,-0.005 0.236009,-0.0296 0.144286,-0.0349 0.172861,-0.17886 0.172861,-0.63006 l 0.006,-2.84303 c 0,-0.19368 0.01693,-0.24801 0.06315,-0.24801 0.04621,0 0.143934,0.10901 0.201789,0.1584 0.08608,0.0847 0.944386,0.88336 1.831622,1.70215 0.570089,0.52564 1.197681,1.13101 1.382184,1.2947 l -0.06315,-2.52025 c -0.006,-0.32244 -0.04621,-0.4318 -0.224719,-0.47131 -0.103717,-0.0198 -0.236361,-0.0247 -0.282575,-0.0247 -0.04022,0 -0.04586,-0.0152 -0.04586,-0.0349 0,-0.0296 0.04586,-0.0349 0.115358,-0.0349 0.258939,0 0.535517,0.0152 0.598664,0.0152 0.0635,0 0.253647,-0.0152 0.489656,-0.0152 0.0635,0 0.103716,0.005 0.103716,0.0349 0,0.0198 -0.02293,0.0349 -0.0635,0.0349 -0.02858,0 -0.06879,0 -0.137936,0.0145 -0.190147,0.0349 -0.21343,0.14394 -0.21343,0.44168 l -0.01129,2.90759 c 0,0.32738 -0.01129,0.35208 -0.05186,0.35208 -0.04586,0 -0.115358,-0.0547 -0.420158,-0.3175 -0.06385,-0.0494 -0.89288,-0.77894 -1.503539,-1.34444 -0.668161,-0.62018 -1.319036,-1.24531 -1.503186,-1.42381 z" />
    <path
       inkscape:connector-curvature="0"
       id="path8110"
       style="fill:#002c80;fill-opacity:1;fill-rule:nonzero;stroke:none;stroke-width:0.35277778"
       d="m 30.061689,144.51157 c 0,0.47625 0,0.86819 0.02893,1.07668 0.01729,0.14393 0.05186,0.25294 0.224366,0.27305 0.08079,0.01 0.207787,0.0197 0.259292,0.0197 0.03493,0 0.04621,0.0148 0.04621,0.0296 0,0.0247 -0.02893,0.0399 -0.09208,0.0399 -0.316794,0 -0.679803,-0.0152 -0.708378,-0.0152 -0.02893,0 -0.391583,0.0152 -0.564797,0.0152 -0.06315,0 -0.09207,-0.0102 -0.09207,-0.0399 0,-0.0148 0.01164,-0.0296 0.04621,-0.0296 0.05186,0 0.121003,-0.01 0.172861,-0.0197 0.115006,-0.0201 0.143933,-0.12912 0.166864,-0.27305 0.02893,-0.20849 0.02893,-0.60043 0.02893,-1.07668 v -2.09867 l -0.852664,0.01 c -0.357011,0.005 -0.4953,0.0399 -0.587375,0.15875 -0.0635,0.0843 -0.08043,0.11924 -0.09772,0.15381 -0.01729,0.0399 -0.03493,0.0498 -0.05785,0.0498 -0.01729,0 -0.02893,-0.0148 -0.02893,-0.0448 0,-0.0494 0.115358,-0.47625 0.126647,-0.51576 0.012,-0.03 0.03493,-0.0942 0.05786,-0.0942 0.04057,0 0.09772,0.0494 0.253647,0.0593 0.166864,0.0152 0.385586,0.025 0.454731,0.025 h 2.160058 c 0.368653,0 0.524228,-0.0497 0.570089,-0.0497 0.02893,0 0.02893,0.0296 0.02893,0.0596 0,0.14887 -0.01764,0.49107 -0.01764,0.54575 0,0.0445 -0.01693,0.0646 -0.03986,0.0646 -0.02893,0 -0.04022,-0.0152 -0.04621,-0.0843 l -0.0056,-0.0547 c -0.02328,-0.14887 -0.155575,-0.26317 -0.708377,-0.27305 l -0.726017,-0.01 z" />
    <path
       inkscape:connector-curvature="0"
       id="path8114"
       style="fill:#4b4f52;fill-opacity:1;fill-rule:nonzero;stroke:none;stroke-width:0.35277778"
       d="m 2.5520086,149.68982 c -0.2088444,0 -0.2176639,0.009 -0.2176639,0.13899 v 0.61384 c 0,0.45649 0.021872,0.51752 0.2656417,0.54398 l 0.1259416,0.0127 c 0.026106,0.0176 0.017639,0.096 -0.00847,0.10901 -0.23495,-0.009 -0.3831167,-0.0131 -0.5528028,-0.0131 -0.1869722,0 -0.3351389,0.009 -0.5044722,0.0131 -0.026458,-0.0131 -0.034925,-0.0825 -0.00882,-0.10901 l 0.073731,-0.0127 c 0.2437694,-0.0437 0.2525889,-0.0875 0.2525889,-0.54398 v -1.56634 c 0,-0.4572 -0.030339,-0.53128 -0.2568222,-0.54821 l -0.1132417,-0.009 c -0.026106,-0.0176 -0.017286,-0.096 0.00882,-0.10901 0.2130777,0.004 0.3612444,0.0131 0.5482166,0.0131 0.1696861,0 0.3178528,-0.004 0.504825,-0.0131 0.026106,0.0131 0.034925,0.0914 0.00882,0.10901 l -0.082903,0.009 c -0.2522361,0.0258 -0.2610556,0.091 -0.2610556,0.54821 v 0.50024 c 0,0.13476 0.00882,0.13935 0.2176639,0.13935 h 1.2446 c 0.2088444,0 0.2173111,-0.005 0.2173111,-0.13935 v -0.50024 c 0,-0.4572 -0.00847,-0.52246 -0.2652889,-0.54821 l -0.08255,-0.009 c -0.026106,-0.0176 -0.017639,-0.096 0.00847,-0.10901 0.2003777,0.009 0.3481916,0.0131 0.5266972,0.0131 0.1696861,0 0.3175,-0.004 0.5132916,-0.0131 0.026106,0.0131 0.034925,0.0914 0.00882,0.10901 l -0.091369,0.009 c -0.2525889,0.0258 -0.2610555,0.091 -0.2610555,0.54821 v 1.56634 c 0,0.45649 0.00847,0.51329 0.2610555,0.54398 l 0.1044223,0.0127 c 0.026105,0.0176 0.017286,0.096 -0.00882,0.10901 -0.2088444,-0.009 -0.3566583,-0.0131 -0.5263444,-0.0131 -0.1785056,0 -0.3351389,0.004 -0.5266972,0.0131 -0.026106,-0.0131 -0.034572,-0.0825 -0.00847,-0.10901 l 0.08255,-0.0127 c 0.2652889,-0.0437 0.2652889,-0.0875 0.2652889,-0.54398 v -0.61384 c 0,-0.13017 -0.00847,-0.13899 -0.2173111,-0.13899 z" />
    <path
       inkscape:connector-curvature="0"
       id="path8118"
       style="fill:#4b4f52;fill-opacity:1;fill-rule:nonzero;stroke:none;stroke-width:0.35277778"
       d="m 10.467989,149.69861 c -0.03492,0.10019 -0.03034,0.10407 0.09137,0.10407 h 0.535517 c 0.125942,0 0.134761,-0.0173 0.0956,-0.13476 l -0.23495,-0.70908 c -0.03492,-0.10443 -0.07408,-0.2219 -0.100189,-0.27411 h -0.0088 c -0.01305,0.0215 -0.05645,0.12594 -0.104423,0.25682 z m 0.861483,0.387 c -0.03034,-0.0956 -0.04763,-0.10866 -0.178152,-0.10866 h -0.656873 c -0.109008,0 -0.135114,0.013 -0.165452,0.10478 l -0.1524,0.45649 c -0.06526,0.19579 -0.0956,0.31327 -0.0956,0.36089 0,0.0526 0.02152,0.0787 0.125941,0.0875 l 0.143581,0.0127 c 0.03034,0.0222 0.03034,0.0914 -0.0085,0.10901 -0.113241,-0.009 -0.248355,-0.009 -0.4526131,-0.013 -0.1435806,0 -0.3002139,0.009 -0.4176889,0.013 -0.026458,-0.0176 -0.034925,-0.0868 -0.00882,-0.10901 l 0.1435806,-0.0127 c 0.1044222,-0.009 0.200025,-0.0564 0.2610555,-0.21343 0.078317,-0.20002 0.2003779,-0.48295 0.3827639,-0.97049 l 0.444147,-1.17475 c 0.06068,-0.15663 0.08678,-0.23918 0.07373,-0.30868 0.104422,-0.0307 0.178505,-0.10901 0.226483,-0.16545 0.02611,0 0.05645,0.009 0.06526,0.0392 0.05645,0.19156 0.125942,0.39159 0.191558,0.58315 l 0.595842,1.74907 c 0.126295,0.37394 0.182739,0.43956 0.370064,0.46143 l 0.117475,0.0127 c 0.03034,0.0222 0.02187,0.0914 0,0.10901 -0.178506,-0.009 -0.330906,-0.013 -0.526697,-0.013 -0.208845,0 -0.373945,0.009 -0.500239,0.013 -0.03492,-0.0176 -0.03916,-0.0868 -0.0088,-0.10901 l 0.126295,-0.0127 c 0.09137,-0.009 0.1524,-0.0349 0.1524,-0.0787 0,-0.0476 -0.02187,-0.12594 -0.0568,-0.23036 z" />
    <path
       inkscape:connector-curvature="0"
       id="path8122"
       style="fill:#4b4f52;fill-opacity:1;fill-rule:nonzero;stroke:none;stroke-width:0.35277778"
       d="m 21.378029,149.68982 c -0.208844,0 -0.217664,0.009 -0.217664,0.13899 v 0.61384 c 0,0.45649 0.02187,0.51752 0.265642,0.54398 l 0.125941,0.0127 c 0.02611,0.0176 0.01764,0.096 -0.0085,0.10901 -0.235303,-0.009 -0.383117,-0.0131 -0.55245,-0.0131 -0.187325,0 -0.335139,0.009 -0.504825,0.0131 -0.02646,-0.0131 -0.03492,-0.0825 -0.0088,-0.10901 l 0.07373,-0.0127 c 0.243769,-0.0437 0.252589,-0.0875 0.252589,-0.54398 v -1.56634 c 0,-0.4572 -0.03034,-0.53128 -0.256822,-0.54821 l -0.112889,-0.009 c -0.02611,-0.0176 -0.01764,-0.096 0.0085,-0.10901 0.213431,0.004 0.361245,0.0131 0.54857,0.0131 0.169333,0 0.317147,-0.004 0.504472,-0.0131 0.02611,0.0131 0.03493,0.0914 0.0088,0.10901 l -0.08255,0.009 c -0.252588,0.0258 -0.261408,0.091 -0.261408,0.54821 v 0.50024 c 0,0.13476 0.0088,0.13935 0.217664,0.13935 h 1.2446 c 0.208492,0 0.217311,-0.005 0.217311,-0.13935 v -0.50024 c 0,-0.4572 -0.0088,-0.52246 -0.265289,-0.54821 l -0.08255,-0.009 c -0.02611,-0.0176 -0.01764,-0.096 0.0088,-0.10901 0.200025,0.009 0.347839,0.0131 0.526344,0.0131 0.169686,0 0.3175,-0.004 0.513292,-0.0131 0.02646,0.0131 0.03493,0.0914 0.0088,0.10901 l -0.09137,0.009 c -0.252589,0.0258 -0.261056,0.091 -0.261056,0.54821 v 1.56634 c 0,0.45649 0.0085,0.51329 0.261056,0.54398 l 0.104422,0.0127 c 0.02611,0.0176 0.01729,0.096 -0.0088,0.10901 -0.208845,-0.009 -0.356659,-0.0131 -0.526345,-0.0131 -0.178505,0 -0.335139,0.004 -0.526344,0.0131 -0.02646,-0.0131 -0.03493,-0.0825 -0.0088,-0.10901 l 0.08255,-0.0127 c 0.265289,-0.0437 0.265289,-0.0875 0.265289,-0.54398 v -0.61384 c 0,-0.13017 -0.0088,-0.13899 -0.217311,-0.13899 z" />
    <path
       inkscape:connector-curvature="0"
       id="path8126"
       style="fill:#4b4f52;fill-opacity:1;fill-rule:nonzero;stroke:none;stroke-width:0.35277778"
       d="m 14.218228,150.00207 c 0,0.5588 0.01764,0.80222 0.09737,0.8703 0.07055,0.061 0.185208,0.0875 0.529519,0.0875 0.233892,0 0.42792,-0.004 0.533753,-0.11395 0.0575,-0.061 0.1016,-0.15592 0.115005,-0.22824 0.0042,-0.03 0.01305,-0.0494 0.03951,-0.0494 0.02222,0 0.02646,0.0155 0.02646,0.0572 0,0.042 -0.03105,0.26987 -0.06597,0.38029 -0.03104,0.0871 -0.0441,0.10266 -0.278341,0.10266 -0.635353,0 -0.926395,-0.0229 -1.182511,-0.0229 -0.03951,0 -0.300214,0.0113 -0.432506,0.0113 -0.04868,0 -0.07055,-0.008 -0.07055,-0.0303 0,-0.0113 0.0088,-0.0229 0.03528,-0.0229 0.03951,0 0.09278,-0.007 0.132292,-0.0152 0.08819,-0.0152 0.110419,-0.0988 0.128058,-0.20884 0.02223,-0.15981 0.02223,-0.46003 0.02223,-0.82515 v -0.66887 c 0,-0.59302 0,-0.69956 -0.0088,-0.82091 -0.0088,-0.12947 -0.0441,-0.19015 -0.190147,-0.21661 -0.03493,-0.008 -0.110067,-0.0116 -0.149578,-0.0116 -0.01764,0 -0.03563,-0.007 -0.03563,-0.0229 0,-0.0226 0.02223,-0.0303 0.07056,-0.0303 0.198614,0 0.476603,0.0116 0.498828,0.0116 0.02187,0 0.344311,-0.0116 0.476602,-0.0116 0.04868,0 0.07056,0.008 0.07056,0.0303 0,0.0155 -0.01764,0.0229 -0.03528,0.0229 -0.03104,0 -0.09243,0.004 -0.145697,0.0116 -0.128058,0.0187 -0.163336,0.0833 -0.172156,0.21661 -0.0088,0.12135 -0.0088,0.22789 -0.0088,0.82091 z" />
    <path
       inkscape:connector-curvature="0"
       id="path8130"
       style="fill:#4b4f52;fill-opacity:1;fill-rule:nonzero;stroke:none;stroke-width:0.35277778"
       d="m 6.6017563,149.33084 c 0,-0.59126 0,-0.69744 -0.00882,-0.8188 -0.00882,-0.12876 -0.044097,-0.18944 -0.1890889,-0.2159 -0.035278,-0.007 -0.1100667,-0.0113 -0.1495778,-0.0113 -0.017639,0 -0.035278,-0.008 -0.035278,-0.0229 0,-0.0226 0.021872,-0.0303 0.070203,-0.0303 0.1982611,0 0.4755444,0.0117 0.4974167,0.0117 0.030692,0 0.906286,0 1.0075333,-0.004 0.083608,-0.004 0.1538111,-0.0113 0.1890888,-0.0191 0.021872,-0.004 0.039511,-0.019 0.061736,-0.019 0.013053,0 0.017639,0.0152 0.017639,0.0342 0,0.0264 -0.022225,0.072 -0.035278,0.17815 -0.00459,0.0381 -0.013406,0.20461 -0.022225,0.25012 -0.00423,0.019 -0.013053,0.0416 -0.030692,0.0416 -0.026458,0 -0.035278,-0.0187 -0.035278,-0.049 0,-0.0268 -0.00423,-0.091 -0.026105,-0.13653 -0.031045,-0.0607 -0.074789,-0.10618 -0.3125611,-0.12911 -0.074789,-0.007 -0.5542139,-0.0109 -0.6025445,-0.0109 -0.017639,0 -0.026458,0.0109 -0.026458,0.0377 v 1.04598 c 0,0.0265 0.00423,0.0378 0.026458,0.0378 0.05715,0 0.5983111,0 0.6992056,-0.007 0.1058333,-0.008 0.1672166,-0.0152 0.2070805,-0.0533 0.030692,-0.0303 0.048331,-0.049 0.06597,-0.049 0.013053,0 0.021872,0.007 0.021872,0.0303 0,0.0226 -0.021872,0.0871 -0.035278,0.21202 -0.00882,0.0758 -0.017639,0.21625 -0.017639,0.24271 0,0.03 0,0.072 -0.030692,0.072 -0.021872,0 -0.030692,-0.0152 -0.030692,-0.0342 0,-0.0377 0,-0.0758 -0.017639,-0.12488 -0.017639,-0.0533 -0.05715,-0.11747 -0.2286,-0.13264 -0.1188861,-0.0113 -0.5545666,-0.019 -0.6293555,-0.019 -0.021872,0 -0.030692,0.0113 -0.030692,0.0265 v 0.33373 c 0,0.12877 -0.00459,0.56833 0,0.64806 0.013053,0.2614 0.079022,0.31079 0.5101167,0.31079 0.1146527,0 0.307975,0 0.4226277,-0.042 0.1143,-0.0416 0.1672167,-0.11747 0.1979084,-0.2727 0.00882,-0.0416 0.017639,-0.0568 0.039511,-0.0568 0.026458,0 0.026458,0.0303 0.026458,0.0568 0,0.0303 -0.035278,0.28822 -0.05715,0.3676 -0.031044,0.0984 -0.065969,0.0984 -0.2377722,0.0984 -0.6642806,0 -0.95885,-0.0226 -1.0865555,-0.0226 -0.021872,0 -0.2991556,0.0113 -0.4310945,0.0113 -0.048683,0 -0.070556,-0.007 -0.070556,-0.0303 0,-0.0113 0.00882,-0.0226 0.035278,-0.0226 0.039511,0 0.092428,-0.008 0.1319389,-0.0152 0.087842,-0.0152 0.1100667,-0.0984 0.1277056,-0.20849 0.021872,-0.15911 0.021872,-0.45861 0.021872,-0.82233 z" />
    <path
       inkscape:connector-curvature="0"
       id="path8134"
       style="fill:#4b4f52;fill-opacity:1;fill-rule:nonzero;stroke:none;stroke-width:0.35277778"
       d="m 17.925323,150.00961 c 0,0.36371 0,0.66287 0.02187,0.82197 0.01341,0.11007 0.03986,0.19332 0.171803,0.20849 0.06138,0.007 0.158397,0.0152 0.197908,0.0152 0.02646,0 0.03493,0.0113 0.03493,0.0226 0,0.0191 -0.02187,0.0303 -0.0702,0.0303 -0.242006,0 -0.518937,-0.0113 -0.540809,-0.0113 -0.02187,0 -0.299155,0.0113 -0.431094,0.0113 -0.04833,0 -0.0702,-0.007 -0.0702,-0.0303 0,-0.0113 0.0085,-0.0226 0.03492,-0.0226 0.03951,0 0.09243,-0.008 0.131939,-0.0152 0.08819,-0.0152 0.110067,-0.0984 0.127705,-0.20849 0.02187,-0.1591 0.02187,-0.45826 0.02187,-0.82197 v -1.60232 l -0.650875,0.007 c -0.272698,0.004 -0.378178,0.0303 -0.448734,0.12136 -0.04833,0.0642 -0.06138,0.0907 -0.07444,0.11712 -0.0134,0.0307 -0.02646,0.0381 -0.0441,0.0381 -0.01341,0 -0.02187,-0.0113 -0.02187,-0.0342 0,-0.0378 0.08784,-0.36371 0.09666,-0.39405 0.0088,-0.0226 0.0261,-0.072 0.04374,-0.072 0.03069,0 0.07479,0.0381 0.193675,0.0455 0.127353,0.0113 0.29457,0.019 0.347486,0.019 h 1.649237 c 0.281516,0 0.40005,-0.0377 0.435327,-0.0377 0.02222,0 0.02222,0.0226 0.02222,0.0452 0,0.11394 -0.0134,0.375 -0.0134,0.41698 0,0.0339 -0.01305,0.049 -0.03069,0.049 -0.02187,0 -0.03069,-0.0113 -0.03528,-0.0642 l -0.0042,-0.0416 c -0.01764,-0.11394 -0.118886,-0.20108 -0.541161,-0.20849 l -0.554214,-0.007 z" />
  </g>
</svg>
