<svg version="1.1" id="Layer_1" xmlns="http://www.w3.org/2000/svg" xmlns:xlink="http://www.w3.org/1999/xlink" x="0px" y="0px"
	 width="100%" viewBox="0 0 604 160" enable-background="new 0 0 604 160" xml:space="preserve">
<path fill="#000000" opacity="1.000000" stroke="none" 
	d="
M83.000000,161.000000 
	C55.732159,161.000000 28.464321,161.000000 1.000000,161.000000 
	C1.000000,127.646027 1.000000,94.291672 1.374375,60.488285 
	C2.153668,60.464855 2.759509,60.821762 2.932163,61.326771 
	C4.512579,65.949486 8.527133,66.864738 12.127531,65.711914 
	C14.508882,64.949425 17.055670,61.894459 17.758512,59.372574 
	C18.755180,55.796417 17.375721,52.499054 13.070953,50.836075 
	C8.882617,49.218079 6.274920,50.845745 3.695444,53.660988 
	C2.897046,54.532360 1.903952,55.225342 1.000000,56.000000 
	C1.000000,37.754288 1.000000,19.508574 1.000000,1.000000 
	C13.019618,1.000000 25.041151,1.000000 37.785671,1.313843 
	C37.638519,3.169059 36.101200,4.688937 36.050694,6.256716 
	C35.969860,8.765721 36.046562,12.251670 37.575581,13.592284 
	C39.446064,15.232288 43.168015,16.088305 45.557243,15.409716 
	C47.655827,14.813677 50.164059,11.764310 50.417854,9.559786 
	C50.731499,6.835418 48.902954,3.864429 48.000000,1.000000 
	C74.687561,1.000000 101.375122,1.000000 128.854614,1.229288 
	C129.416870,1.934224 129.187195,2.409872 128.637604,3.049838 
	C127.861320,5.510944 127.404961,7.807733 126.971466,10.480081 
	C127.817802,15.234927 131.008911,16.290375 134.751434,15.923590 
	C138.001312,15.605089 141.218933,14.392302 140.946274,10.331305 
	C140.735474,7.191466 139.679962,4.108340 139.000000,1.000000 
	C294.273621,1.000000 449.547241,1.000000 604.910400,1.000000 
	C604.910400,54.252991 604.910400,107.506180 604.910400,161.000000 
	C434.645844,161.000000 264.291595,161.000000 93.202896,160.681656 
	C92.946495,159.688293 93.484383,159.047409 93.892288,158.332397 
	C95.754868,155.067581 95.629494,151.515305 92.665840,149.510681 
	C90.762825,148.223495 87.220795,147.966705 85.029846,148.823776 
	C81.728584,150.115173 81.362648,153.479721 82.385292,156.858749 
	C82.785202,158.180145 82.806343,159.616180 83.000000,161.000000 
M509.654510,72.614235 
	C512.868042,72.077843 516.064087,71.328712 519.299866,71.062737 
	C522.787415,70.776047 523.439148,72.777061 522.894836,74.668358 
	C516.482727,77.112419 510.937988,79.225868 505.239746,81.397835 
	C504.860565,79.363113 504.409180,76.979736 503.973022,74.593582 
	C502.172241,64.742790 488.805603,59.650463 480.786194,65.762375 
	C473.071045,71.642433 471.418640,84.669540 477.259094,93.569870 
	C480.671204,98.769638 494.650146,101.429893 501.033691,97.775726 
	C502.087006,97.172775 502.889496,94.573792 502.461609,93.379646 
	C502.035065,92.189293 499.997833,91.151077 498.515411,90.882858 
	C497.012329,90.610870 495.323700,91.360626 493.716919,91.665848 
	C489.357117,92.494034 485.806824,89.779350 485.454956,85.054741 
	C491.846191,84.286667 498.243988,83.517792 504.999695,82.705917 
	C504.999695,85.120911 504.991058,86.442085 505.001129,87.763115 
	C505.053802,94.659050 506.638885,97.378807 513.265991,98.507156 
	C518.259949,99.357445 523.537476,99.010361 528.640503,98.598267 
	C532.443909,98.291100 534.602234,96.215729 534.118835,91.662086 
	C533.594177,86.720787 534.059753,81.679878 533.985046,76.684029 
	C533.866211,68.738304 530.508423,64.902786 522.670105,64.030067 
	C519.832397,63.714123 516.924683,63.904709 514.055237,64.020233 
	C507.003113,64.304161 506.098785,65.813988 509.654510,72.614235 
M460.000000,64.486076 
	C460.000000,67.242874 460.000000,69.999672 460.000000,72.691071 
	C456.289917,72.691071 453.364014,72.691071 449.829590,72.691071 
	C449.829590,66.676445 449.829590,60.950958 449.829590,55.314808 
	C445.945221,55.314808 442.687531,55.314808 439.393707,55.314808 
	C439.393707,70.001289 439.393707,84.369835 439.393707,98.688416 
	C443.048615,98.688416 446.306152,98.688416 450.169739,98.688416 
	C450.169739,92.335648 450.169739,86.278038 450.169739,80.314377 
	C453.723785,80.314377 456.647522,80.314377 460.180115,80.314377 
	C460.180115,86.668808 460.180115,92.725197 460.180115,98.680130 
	C464.064697,98.680130 467.322784,98.680130 470.601501,98.680130 
	C470.601501,83.988335 470.601501,69.619644 470.601501,55.316620 
	C466.938446,55.316620 463.682281,55.316620 460.000000,55.316620 
	C460.000000,58.251167 460.000000,60.883694 460.000000,64.486076 
M317.659760,73.212105 
	C316.083282,68.685127 312.928528,65.135559 308.418640,64.420723 
	C303.401794,63.625534 298.126617,64.251709 292.981079,64.552956 
	C289.745789,64.742371 288.884216,66.856178 288.928894,70.036591 
	C289.104248,82.515808 288.990326,94.998978 289.014801,107.480606 
	C289.017609,108.911003 289.214996,110.341019 289.316498,111.695709 
	C292.706299,111.695709 295.631592,111.695709 299.151978,111.695709 
	C299.151978,107.351128 299.151978,103.292587 299.151978,99.915207 
	C303.670715,98.900398 307.812683,98.745888 311.180878,97.052460 
	C318.218445,93.514191 320.797974,83.628998 317.659760,73.212105 
M574.009033,51.785721 
	C574.009033,67.366386 574.009033,82.947052 574.009033,98.620026 
	C577.621948,98.620026 580.654419,98.620026 584.004639,98.620026 
	C584.004639,90.447212 583.876709,82.646149 584.130066,74.857491 
	C584.172546,73.552567 585.752014,71.378067 586.827271,71.242805 
	C588.422485,71.042145 590.906372,71.832001 591.727783,73.059578 
	C592.805359,74.669815 592.904114,77.110176 592.949158,79.203712 
	C593.087463,85.637550 592.999512,92.076256 592.999512,98.628693 
	C596.605286,98.628693 599.637634,98.628693 602.565735,98.628693 
	C602.756653,97.948517 602.918640,97.637390 602.920471,97.325340 
	C602.957947,90.840446 602.608276,84.328720 603.075623,77.875938 
	C604.095520,63.794895 595.861877,63.015423 586.227173,64.340805 
	C585.647705,64.420525 585.088989,64.650581 584.000000,64.957306 
	C584.000000,62.085850 584.000000,59.617092 584.000000,57.148331 
	C584.000000,54.551579 584.000000,51.954823 584.000000,47.977482 
	C580.036743,49.118431 577.039001,49.981415 574.009033,51.785721 
M385.360352,64.000000 
	C384.030334,64.000008 382.700317,63.999619 381.370300,64.000069 
	C370.000031,64.003914 370.000000,64.003960 370.000000,75.039391 
	C369.999969,82.945518 370.000000,90.851646 370.000000,98.694458 
	C374.044037,98.694458 377.297607,98.694458 381.101501,98.694458 
	C381.101501,89.347359 381.101501,80.289871 381.101501,71.294739 
	C388.243408,70.776657 388.982697,71.428711 388.996521,77.834229 
	C389.011444,84.757332 388.999878,91.680496 388.999878,98.585098 
	C393.025665,98.585098 396.390137,98.585098 400.000000,98.585098 
	C400.000000,91.367119 400.002991,84.562218 399.999268,77.757317 
	C399.993927,67.996475 396.043884,64.034531 385.360352,64.000000 
M323.427277,92.913528 
	C327.866272,102.009773 345.927338,100.781540 349.518280,92.148285 
	C352.540558,84.882187 352.759918,78.043350 349.475006,70.879776 
	C346.694550,64.816284 341.279144,63.502323 335.702942,63.292412 
	C329.246002,63.049339 323.618561,67.177376 322.009583,73.042351 
	C320.254486,79.439857 319.822876,85.985199 323.427277,92.913528 
M284.772552,96.416405 
	C284.005585,94.307327 283.238617,92.198242 282.490326,90.140472 
	C269.935852,92.498634 268.395325,92.040596 266.256592,85.202896 
	C271.798462,84.459946 277.316071,83.833763 282.780243,82.896271 
	C283.935669,82.698036 285.521606,81.551369 285.836914,80.515366 
	C287.174622,76.119858 283.366974,67.790092 279.226624,65.695084 
	C269.920685,60.986301 257.157593,63.396515 255.230606,77.187950 
	C253.810211,87.353752 256.417847,96.763847 266.737396,98.539398 
	C272.284546,99.493835 278.331207,97.545357 284.772552,96.416405 
M241.417084,53.069237 
	C240.285049,56.380558 239.153030,59.691879 237.830811,63.559498 
	C233.747162,63.618481 234.892349,67.102280 235.235229,70.526665 
	C239.062988,70.465271 239.111404,73.048576 239.050217,76.075111 
	C238.897278,83.640732 238.999771,91.211525 238.999771,98.685776 
	C243.062866,98.685776 246.316208,98.685776 249.973907,98.685776 
	C249.973907,89.466988 249.973907,80.551949 249.973907,71.531960 
	C251.859268,71.101776 253.374008,70.756165 254.678925,70.458420 
	C254.678925,68.182289 254.678925,66.251480 254.678925,64.388260 
	C252.956238,64.047722 251.551224,63.769974 249.264191,63.317871 
	C250.168304,60.906242 250.400375,57.685959 251.787445,57.071060 
	C256.090271,55.163582 255.213120,52.390938 254.507965,49.268745 
	C246.341156,48.649456 246.129425,48.706333 241.417084,53.069237 
M196.770996,98.990410 
	C203.049988,98.990410 209.328995,98.990410 215.592041,98.990410 
	C215.592041,95.985298 215.592041,93.616631 215.592041,90.807106 
	C211.928421,90.807106 208.669647,90.807106 204.805023,90.807106 
	C204.805023,78.646828 204.805023,66.930389 204.805023,55.330746 
	C200.916611,55.330746 197.656555,55.330746 194.021057,55.330746 
	C194.021057,69.287384 193.990402,82.917664 194.098053,96.546852 
	C194.104446,97.354332 195.221939,98.153030 196.770996,98.990410 
M562.977844,98.986938 
	C571.572083,99.017769 571.614624,98.975578 570.463379,91.227608 
	C569.153809,91.067909 567.749023,90.896599 566.220947,90.710258 
	C566.220947,84.098038 566.220947,77.835739 566.220947,71.501511 
	C567.907837,71.095039 569.415405,70.731804 570.806396,70.396637 
	C570.806396,68.228638 570.806396,66.431519 570.806396,64.484482 
	C569.142883,64.103310 567.624146,63.755302 565.928772,63.366825 
	C565.928772,60.291870 565.928772,57.481033 565.928772,54.540451 
	C563.109314,55.089504 560.420776,55.258663 558.050415,56.215786 
	C556.756653,56.738182 555.861572,58.510666 555.039612,59.872051 
	C554.016479,61.566547 553.254456,63.418644 552.379639,65.202675 
	C551.962830,65.062424 551.545959,64.922180 551.129150,64.781929 
	C551.129150,66.587776 551.129150,68.393631 551.129150,70.199486 
	C551.596619,70.062622 552.064087,69.925758 552.531555,69.788902 
	C553.354248,71.737961 554.698425,73.637543 554.889038,75.646591 
	C555.264465,79.604126 555.166626,83.631042 554.959900,87.613441 
	C554.671143,93.176849 556.480469,97.228577 562.977844,98.986938 
M420.416412,91.045540 
	C418.136536,91.045341 415.980133,90.946503 416.003601,87.769371 
	C416.043732,82.327347 416.014648,76.884811 416.014648,71.404854 
	C418.263245,71.087982 419.998627,70.843437 421.745728,70.597237 
	C421.745728,68.360733 421.745728,66.434792 421.745728,64.272652 
	C419.794647,64.069511 418.062134,63.889133 415.955688,63.669819 
	C415.955688,60.443981 415.955688,57.539989 415.955688,54.354496 
	C413.595581,54.969933 411.498352,55.118061 409.857483,56.060642 
	C408.321136,56.943192 407.102417,58.550858 406.047333,60.052601 
	C404.896332,61.690865 404.094116,63.574196 403.139832,65.350700 
	C402.096161,67.872566 400.697205,71.521088 406.009979,71.421768 
	C406.009979,78.468628 405.803101,85.113243 406.073242,91.738403 
	C406.303497,97.385750 411.265747,100.203468 418.851776,98.919617 
	C424.124847,98.027229 421.855499,94.231232 420.416412,91.045540 
M94.025665,92.931313 
	C101.572632,87.711617 103.561302,76.566673 97.856850,71.460495 
	C93.143608,67.241570 84.930153,66.817558 80.010338,70.539192 
	C76.191673,73.427849 74.553978,82.369972 76.997139,86.991737 
	C80.254669,93.154053 86.273918,95.390427 94.025665,92.931313 
M540.681396,98.989685 
	C542.953491,98.989685 545.225586,98.989685 548.000000,98.989685 
	C548.000000,90.365150 548.000000,82.275589 548.000000,74.186035 
	C548.000000,65.939903 548.000000,57.693779 548.000000,49.381592 
	C544.365845,49.381592 541.337646,49.381592 538.018738,49.381592 
	C538.018738,65.341461 537.992432,80.922165 538.092651,96.502045 
	C538.097961,97.322647 539.175781,98.136345 540.681396,98.989685 
M78.082184,114.129654 
	C78.436020,114.870132 78.702293,115.669975 79.157669,116.341614 
	C82.567101,121.370270 89.132256,122.458374 94.967911,118.997574 
	C99.583839,116.260117 100.945572,109.858833 98.084564,104.346687 
	C95.501366,99.369789 89.534988,97.314812 84.021797,99.503098 
	C79.001114,101.495895 76.184143,107.962799 78.082184,114.129654 
M128.997375,83.111809 
	C128.998108,82.113144 128.928497,81.108582 129.011612,80.116821 
	C129.399933,75.483681 127.132767,72.642052 122.997871,70.990738 
	C118.918472,69.361603 114.977615,69.187653 111.389572,72.145462 
	C107.044212,75.727554 106.085175,79.483345 107.905006,84.879944 
	C109.409706,89.342033 112.202698,91.932892 117.141708,92.024994 
	C123.403122,92.141762 126.465858,90.148872 128.997375,83.111809 
M94.468994,42.866535 
	C89.864540,39.555531 84.938332,40.345135 81.300583,43.653721 
	C78.957672,45.784653 77.320068,49.923721 77.345749,53.146980 
	C77.387779,58.422218 81.856331,62.538788 86.137642,62.989277 
	C92.461815,63.654720 96.310371,61.797607 98.466644,57.039963 
	C100.925224,51.615284 99.957603,47.445831 94.468994,42.866535 
M48.055412,77.170570 
	C48.037052,78.661507 48.073883,80.155548 47.990120,81.642807 
	C47.725040,86.349548 49.997513,89.372292 54.226681,91.063835 
	C58.286446,92.687637 62.231838,92.752327 65.741646,89.731903 
	C69.408501,86.576324 70.885872,82.713356 69.444298,77.895920 
	C68.151642,73.576134 65.412888,70.648827 60.968113,70.089584 
	C55.528824,69.405212 50.879780,71.016968 48.055412,77.170570 
M226.427216,64.000496 
	C224.354828,64.000496 222.282425,64.000496 220.344299,64.000496 
	C220.344299,76.123428 220.344299,87.380516 220.344299,98.737930 
	C223.947784,98.737930 227.204132,98.737930 230.985825,98.737930 
	C230.985825,87.866997 231.073517,77.247017 230.828674,66.634697 
	C230.807831,65.731026 228.570312,64.878494 226.427216,64.000496 
M355.000000,77.510872 
	C355.000000,84.263390 355.000000,91.015915 355.000000,97.683205 
	C359.061493,97.683205 362.317596,97.683205 366.000000,97.683205 
	C366.000000,91.913490 366.000000,86.451744 366.000000,80.989990 
	C366.000000,75.401878 366.000000,69.813759 366.000000,64.317535 
	C361.940155,64.317535 358.682129,64.317535 355.000000,64.317535 
	C355.000000,68.587814 355.000000,72.551788 355.000000,77.510872 
M106.435799,52.081356 
	C107.227043,55.133354 107.344131,58.624161 108.974968,61.129677 
	C111.164444,64.493477 118.433617,65.040245 122.115486,62.955124 
	C125.833313,60.849636 127.950859,55.732109 126.711678,51.444008 
	C125.413132,46.950466 122.784721,44.044968 117.668053,43.972095 
	C110.714699,43.873070 108.739090,45.142220 106.435799,52.081356 
M51.074642,59.051258 
	C52.036148,60.170174 52.797752,61.616714 53.995911,62.347759 
	C57.893509,64.725845 61.913967,64.899239 66.038910,62.577831 
	C70.036446,60.328129 71.282112,56.544231 70.684555,52.640873 
	C69.584297,45.453899 63.791401,42.212490 56.752930,44.153351 
	C51.326431,45.649715 48.790859,51.841946 51.074642,59.051258 
M69.216713,103.666634 
	C67.941826,102.495216 66.839783,100.998016 65.359940,100.212936 
	C60.760433,97.772850 55.707382,99.256569 53.221832,103.510391 
	C50.860096,107.552315 52.069630,113.505562 55.736744,115.888611 
	C59.545593,118.363754 66.867516,117.362495 68.834625,113.342819 
	C70.081444,110.795006 69.497345,107.351204 69.216713,103.666634 
M152.901794,56.180786 
	C152.595642,54.602287 152.490738,52.950230 151.945694,51.459049 
	C150.297760,46.950596 144.753830,44.652554 140.121140,46.415791 
	C136.034332,47.971256 133.611252,53.332363 134.831818,57.598324 
	C136.104126,62.045227 139.092422,63.730743 143.489197,64.050903 
	C148.860001,64.441994 151.051361,61.185581 152.901794,56.180786 
M35.123470,46.015121 
	C33.966969,46.019661 32.788471,45.880806 31.657866,46.054199 
	C27.352034,46.714542 23.667927,51.354763 24.039894,55.526134 
	C24.465645,60.300648 28.405411,64.005676 33.049637,63.999073 
	C38.204716,63.991741 41.575115,61.434776 42.658752,56.709080 
	C43.518013,52.961876 40.653614,48.428165 35.123470,46.015121 
M121.380943,100.924599 
	C120.198708,100.410576 119.047600,99.802277 117.828529,99.399811 
	C113.799736,98.069695 110.654236,100.016113 108.217896,102.754051 
	C105.956306,105.295586 106.587578,111.891853 108.776207,114.273125 
	C111.681396,117.434006 118.811104,118.126114 121.883736,115.545517 
	C125.980736,112.104591 126.011475,106.371895 121.380943,100.924599 
M35.900146,72.055695 
	C35.067856,72.037346 34.235466,71.999695 33.403286,72.003777 
	C27.976072,72.030403 25.089172,74.984718 25.000702,80.590759 
	C24.905254,86.638870 27.762350,89.899162 33.235142,89.999428 
	C37.458103,90.076797 40.679340,88.450371 41.953304,84.257225 
	C43.768497,78.282669 42.550728,75.732010 35.900146,72.055695 
M151.215363,76.657356 
	C148.085190,71.768799 143.789520,70.463684 139.090805,72.973679 
	C134.760498,75.286873 133.139175,79.944824 135.027985,84.645844 
	C136.822281,89.111626 141.282257,90.903381 146.402832,89.215576 
	C151.634918,87.491005 152.457977,85.647133 151.215363,76.657356 
M81.981293,127.550575 
	C81.321724,130.348862 80.233292,133.127457 80.103767,135.950058 
	C79.912598,140.116028 83.581818,142.965775 88.403481,142.998047 
	C93.269928,143.030640 96.753189,140.250137 96.996834,136.138458 
	C97.584061,126.228569 92.161781,122.791168 81.981293,127.550575 
M109.023521,23.474634 
	C105.145370,28.190058 104.764206,33.435146 108.660889,35.974403 
	C112.975708,38.786129 117.110725,39.558781 120.278008,34.818100 
	C121.919113,32.361759 121.988403,27.836996 120.963074,24.870468 
	C119.625793,21.001394 114.953545,20.651169 109.023521,23.474634 
M60.353279,21.887598 
	C54.610363,24.022285 52.763275,30.979689 56.683788,35.224903 
	C59.938255,38.748913 63.727825,38.640610 67.425095,36.674225 
	C70.910912,34.820290 71.883179,31.178648 70.703751,27.690109 
	C69.239914,23.360331 66.093811,20.673555 60.353279,21.887598 
M147.176224,27.605959 
	C144.336777,23.206696 140.944077,21.885992 136.882614,23.598894 
	C132.654114,25.382242 130.961960,28.810841 132.072906,33.743965 
	C133.137115,38.469646 136.688446,39.213959 140.825134,39.012321 
	C145.937363,38.763123 148.352066,35.016945 147.176224,27.605959 
M41.886433,24.442991 
	C39.220104,24.160870 36.379166,23.163286 33.927708,23.761580 
	C30.094334,24.697136 28.169043,28.208426 29.214485,31.836905 
	C29.977724,34.485912 32.162392,37.804790 34.501537,38.653862 
	C37.597858,39.777782 42.058247,40.028896 43.985146,35.768456 
	C45.674004,32.034325 46.256439,28.120785 41.886433,24.442991 
M174.117783,60.591125 
	C175.501511,55.932373 173.397736,51.918091 168.743469,50.336239 
	C165.064117,49.085728 161.115051,51.073101 159.528870,54.973492 
	C157.926361,58.914028 159.654907,63.870415 163.259323,65.670105 
	C166.832520,67.454208 171.591263,65.551086 174.117783,60.591125 
M82.018028,27.804766 
	C81.561226,31.001583 82.123283,34.274426 85.226364,35.377518 
	C87.370529,36.139736 91.115639,35.960464 92.439941,34.573532 
	C94.130180,32.803349 94.713928,29.355494 94.554619,26.704042 
	C94.475677,25.390291 91.816719,23.545364 90.060516,23.166311 
	C86.752777,22.452383 83.372223,22.866734 82.018028,27.804766 
M18.904573,76.674316 
	C16.260485,72.859085 12.783573,73.036247 9.424070,75.212776 
	C6.073483,77.383530 6.019315,81.058098 7.792533,83.985542 
	C9.306344,86.484711 12.063043,88.120728 15.444818,86.175674 
	C18.945999,84.161949 21.246572,81.768997 18.904573,76.674316 
M167.325577,85.904053 
	C171.141632,83.260338 170.962723,79.783180 168.787048,76.424202 
	C166.616760,73.073509 162.942184,73.019600 160.014862,74.792709 
	C157.515640,76.306519 155.879990,79.063797 157.824158,82.444778 
	C159.837402,85.945869 162.231644,88.245346 167.325577,85.904053 
M70.456985,128.014664 
	C65.834839,124.388474 59.554783,125.555809 59.230701,130.363968 
	C59.066498,132.800125 60.125523,136.360107 61.894470,137.578705 
	C63.513176,138.693817 67.301376,138.108353 69.289551,136.892319 
	C72.134628,135.152176 72.942894,131.929245 70.456985,128.014664 
M105.027771,131.585052 
	C105.502876,135.908875 107.775116,138.823517 112.213310,138.778366 
	C116.258293,138.737228 118.772362,135.413483 117.812889,131.210266 
	C117.370094,129.270538 115.367210,126.855179 113.536804,126.235558 
	C109.618271,124.909088 106.456093,126.582840 105.027771,131.585052 
M166.981094,29.480843 
	C164.324783,29.479073 161.179932,28.614687 159.169434,29.753277 
	C157.610489,30.636154 156.456573,34.248638 156.904831,36.248253 
	C157.882492,40.609409 162.137161,42.368362 165.648270,40.694134 
	C169.292923,38.956234 170.080078,34.588036 166.981094,29.480843 
M140.538986,112.105812 
	C144.329590,110.369102 144.929260,106.742874 143.562653,103.849136 
	C142.666901,101.952377 139.238342,100.263451 136.975693,100.302650 
	C135.048416,100.336029 132.322662,102.586845 131.436676,104.533302 
	C129.492325,108.804985 134.215958,113.054321 140.538986,112.105812 
M106.096657,6.466727 
	C104.048264,9.377063 102.905708,12.653395 105.981491,15.216617 
	C107.731461,16.674959 110.747696,17.753695 112.888016,17.356421 
	C116.829620,16.624802 118.529640,12.012239 116.551147,8.180227 
	C114.293381,3.807313 110.556831,4.443758 106.096657,6.466727 
M38.673344,100.003242 
	C33.964943,100.398369 32.502518,103.383286 33.092896,107.530388 
	C33.595558,111.061310 35.973816,113.316071 39.542706,112.852669 
	C43.281235,112.367233 46.005230,109.758095 45.841713,105.865303 
	C45.694756,102.366798 43.790661,99.593880 38.673344,100.003242 
M8.003121,33.689438 
	C7.620546,37.461418 9.001265,40.170807 12.882381,40.949848 
	C17.135893,41.803638 20.027935,38.996410 20.359741,35.635551 
	C20.590092,33.302353 18.328913,29.470652 16.164085,28.436054 
	C12.580922,26.723618 9.153714,28.445004 8.003121,33.689438 
M61.710674,6.147571 
	C61.141335,7.803709 60.180073,9.435437 60.075119,11.120499 
	C59.741692,16.473953 64.165405,19.392002 68.744514,17.061684 
	C72.410629,15.195993 73.541840,12.201184 71.944283,8.586616 
	C69.992157,4.169853 66.337227,4.404308 61.710674,6.147571 
M152.287735,9.295182 
	C151.257217,10.375448 149.971558,11.308782 149.247711,12.565654 
	C147.587509,15.448473 149.424500,20.397369 152.452103,21.751993 
	C155.167862,22.967089 159.772141,21.062548 160.824570,18.288748 
	C162.844986,12.963820 159.517853,9.018389 152.287735,9.295182 
M27.985609,13.860467 
	C26.377811,12.245358 25.018757,9.740736 23.108673,9.206598 
	C19.508690,8.199899 16.708014,10.076464 16.044226,14.013954 
	C15.325804,18.275513 17.587446,21.626240 21.168398,21.989712 
	C25.592978,22.438812 27.807531,20.069021 27.985609,13.860467 
M229.430634,59.027554 
	C229.920792,58.381737 230.765121,57.774555 230.840485,57.083508 
	C231.187103,53.905670 231.485519,50.540123 226.991150,50.040825 
	C223.575623,49.661369 220.711578,50.575050 220.074799,54.472340 
	C219.530975,57.800766 222.128448,59.975803 226.420013,59.975540 
	C227.221741,59.975491 228.023483,59.729557 229.430634,59.027554 
M365.974884,55.319458 
	C365.713623,54.383713 365.496521,53.432896 365.183350,52.514854 
	C363.841614,48.581482 360.222595,49.539349 358.080994,50.371876 
	C356.534180,50.973167 354.919495,54.456890 355.336761,56.166515 
	C355.729095,57.773815 358.742523,59.704922 360.607849,59.710285 
	C362.371399,59.715355 364.141602,57.401577 365.974884,55.319458 
z"/>
<path fill="#A7228B" opacity="1.000000" stroke="none" 
	d="
M1.000000,56.399994 
	C1.903952,55.225342 2.897046,54.532360 3.695444,53.660988 
	C6.274920,50.845745 8.882617,49.218079 13.070953,50.836075 
	C17.375721,52.499054 18.755180,55.796417 17.758512,59.372574 
	C17.055670,61.894459 14.508882,64.949425 12.127531,65.711914 
	C8.527133,66.864738 4.512579,65.949486 2.932163,61.326771 
	C2.759509,60.821762 2.153668,60.464855 1.374375,60.019627 
	C1.000000,58.933331 1.000000,57.866661 1.000000,56.399994 
z"/>
<path fill="#75479C" opacity="1.000000" stroke="none" 
	d="
M47.545891,1.000000 
	C48.902954,3.864429 50.731499,6.835418 50.417854,9.559786 
	C50.164059,11.764310 47.655827,14.813677 45.557243,15.409716 
	C43.168015,16.088305 39.446064,15.232288 37.575581,13.592284 
	C36.046562,12.251670 35.969860,8.765721 36.050694,6.256716 
	C36.101200,4.688937 37.638519,3.169059 38.254330,1.313843 
	C41.030594,1.000000 44.061188,1.000000 47.545891,1.000000 
z"/>
<path fill="#5BBA47" opacity="1.000000" stroke="none" 
	d="
M138.666672,1.000000 
	C139.679962,4.108340 140.735474,7.191466 140.946274,10.331305 
	C141.218933,14.392302 138.001312,15.605089 134.751434,15.923590 
	C131.008911,16.290375 127.817802,15.234927 127.133636,10.144933 
	C127.834465,7.251324 128.395996,5.068423 128.957535,2.885521 
	C129.187195,2.409872 129.416870,1.934224 129.323273,1.229288 
	C130.714355,1.000000 132.428711,1.000000 134.677597,1.171798 
	C135.808090,1.229064 136.404037,1.114532 137.000000,1.000000 
	C137.444443,1.000000 137.888901,1.000000 138.666672,1.000000 
z"/>
<path fill="#A7228B" opacity="1.000000" stroke="none" 
	d="
M83.454109,161.000000 
	C82.806343,159.616180 82.785202,158.180145 82.385292,156.858749 
	C81.362648,153.479721 81.728584,150.115173 85.029846,148.823776 
	C87.220795,147.966705 90.762825,148.223495 92.665840,149.510681 
	C95.629494,151.515305 95.754868,155.067581 93.892288,158.332397 
	C93.484383,159.047409 92.946495,159.688293 92.734238,160.681656 
	C89.969406,161.000000 86.938812,161.000000 83.454109,161.000000 
z"/>
<path fill="#5BBA47" opacity="1.000000" stroke="none" 
	d="
M136.666672,1.000000 
	C136.404037,1.114532 135.808090,1.229064 135.106064,1.171798 
	C135.444443,1.000000 135.888901,1.000000 136.666672,1.000000 
z"/>
<path fill="#2B6BB2" opacity="1.000000" stroke="none" 
	d="
M509.306885,72.452393 
	C506.098785,65.813988 507.003113,64.304161 514.055237,64.020233 
	C516.924683,63.904709 519.832397,63.714123 522.670105,64.030067 
	C530.508423,64.902786 533.866211,68.738304 533.985046,76.684029 
	C534.059753,81.679878 533.594177,86.720787 534.118835,91.662086 
	C534.602234,96.215729 532.443909,98.291100 528.640503,98.598267 
	C523.537476,99.010361 518.259949,99.357445 513.265991,98.507156 
	C506.638885,97.378807 505.053802,94.659050 505.001129,87.763115 
	C504.991058,86.442085 504.999695,85.120911 504.999695,82.705917 
	C498.243988,83.517792 491.846191,84.286667 485.454956,85.054741 
	C485.806824,89.779350 489.357117,92.494034 493.716919,91.665848 
	C495.323700,91.360626 497.012329,90.610870 498.515411,90.882858 
	C499.997833,91.151077 502.035065,92.189293 502.461609,93.379646 
	C502.889496,94.573792 502.087006,97.172775 501.033691,97.775726 
	C494.650146,101.429893 480.671204,98.769638 477.259094,93.569870 
	C471.418640,84.669540 473.071045,71.642433 480.786194,65.762375 
	C488.805603,59.650463 502.172241,64.742790 503.973022,74.593582 
	C504.409180,76.979736 504.860565,79.363113 505.239746,81.397835 
	C510.937988,79.225868 516.482727,77.112419 522.894836,74.668358 
	C523.439148,72.777061 522.787415,70.776047 519.299866,71.062737 
	C516.064087,71.328712 512.868042,72.077843 509.306885,72.452393 
M515.942871,84.602905 
	C516.180542,86.999969 515.763794,89.802483 516.902893,91.641075 
	C517.579407,92.733047 522.376648,92.808647 522.473816,92.485359 
	C523.455078,89.220810 523.847534,85.779274 524.660706,80.834030 
	C520.867126,82.314529 518.680542,83.167877 515.942871,84.602905 
M485.689484,78.962601 
	C488.379639,78.515167 491.069794,78.067741 495.225983,77.376472 
	C493.416840,74.574669 492.315033,72.195595 490.551636,70.507652 
	C489.946655,69.928566 486.748108,70.660767 486.365875,71.519814 
	C485.376740,73.742737 485.296112,76.369904 485.689484,78.962601 
z"/>
<path fill="#2B6BB2" opacity="1.000000" stroke="none" 
	d="
M460.000000,64.001152 
	C460.000000,60.883694 460.000000,58.251167 460.000000,55.316620 
	C463.682281,55.316620 466.938446,55.316620 470.601501,55.316620 
	C470.601501,69.619644 470.601501,83.988335 470.601501,98.680130 
	C467.322784,98.680130 464.064697,98.680130 460.180115,98.680130 
	C460.180115,92.725197 460.180115,86.668808 460.180115,80.314377 
	C456.647522,80.314377 453.723785,80.314377 450.169739,80.314377 
	C450.169739,86.278038 450.169739,92.335648 450.169739,98.688416 
	C446.306152,98.688416 443.048615,98.688416 439.393707,98.688416 
	C439.393707,84.369835 439.393707,70.001289 439.393707,55.314808 
	C442.687531,55.314808 445.945221,55.314808 449.829590,55.314808 
	C449.829590,60.950958 449.829590,66.676445 449.829590,72.691071 
	C453.364014,72.691071 456.289917,72.691071 460.000000,72.691071 
	C460.000000,69.999672 460.000000,67.242874 460.000000,64.001152 
z"/>
<path fill="#2B6BB2" opacity="1.000000" stroke="none" 
	d="
M317.796600,73.592804 
	C320.797974,83.628998 318.218445,93.514191 311.180878,97.052460 
	C307.812683,98.745888 303.670715,98.900398 299.151978,99.915207 
	C299.151978,103.292587 299.151978,107.351128 299.151978,111.695709 
	C295.631592,111.695709 292.706299,111.695709 289.316498,111.695709 
	C289.214996,110.341019 289.017609,108.911003 289.014801,107.480606 
	C288.990326,94.998978 289.104248,82.515808 288.928894,70.036591 
	C288.884216,66.856178 289.745789,64.742371 292.981079,64.552956 
	C298.126617,64.251709 303.401794,63.625534 308.418640,64.420723 
	C312.928528,65.135559 316.083282,68.685127 317.796600,73.592804 
M303.489838,70.881226 
	C300.973083,69.271667 299.177094,69.888016 299.082703,72.896225 
	C298.885803,79.172241 299.023132,85.458755 299.023132,92.820351 
	C301.887024,91.699562 304.454163,91.441559 305.806793,90.024368 
	C309.732880,85.910866 308.627014,75.175377 303.489838,70.881226 
z"/>
<path fill="#2B6BB2" opacity="1.000000" stroke="none" 
	d="
M574.025146,51.315060 
	C577.039001,49.981415 580.036743,49.118431 584.000000,47.977482 
	C584.000000,51.954823 584.000000,54.551579 584.000000,57.148331 
	C584.000000,59.617092 584.000000,62.085850 584.000000,64.957306 
	C585.088989,64.650581 585.647705,64.420525 586.227173,64.340805 
	C595.861877,63.015423 604.095520,63.794895 603.075623,77.875938 
	C602.608276,84.328720 602.957947,90.840446 602.920471,97.325340 
	C602.918640,97.637390 602.756653,97.948517 602.565735,98.628693 
	C599.637634,98.628693 596.605286,98.628693 592.999512,98.628693 
	C592.999512,92.076256 593.087463,85.637550 592.949158,79.203712 
	C592.904114,77.110176 592.805359,74.669815 591.727783,73.059578 
	C590.906372,71.832001 588.422485,71.042145 586.827271,71.242805 
	C585.752014,71.378067 584.172546,73.552567 584.130066,74.857491 
	C583.876709,82.646149 584.004639,90.447212 584.004639,98.620026 
	C580.654419,98.620026 577.621948,98.620026 574.009033,98.620026 
	C574.009033,82.947052 574.009033,67.366386 574.025146,51.315060 
z"/>
<path fill="#2B6BB2" opacity="1.000000" stroke="none" 
	d="
M385.825806,64.000015 
	C396.043884,64.034531 399.993927,67.996475 399.999268,77.757317 
	C400.002991,84.562218 400.000000,91.367119 400.000000,98.585098 
	C396.390137,98.585098 393.025665,98.585098 388.999878,98.585098 
	C388.999878,91.680496 389.011444,84.757332 388.996521,77.834229 
	C388.982697,71.428711 388.243408,70.776657 381.101501,71.294739 
	C381.101501,80.289871 381.101501,89.347359 381.101501,98.694458 
	C377.297607,98.694458 374.044037,98.694458 370.000000,98.694458 
	C370.000000,90.851646 369.999969,82.945518 370.000000,75.039391 
	C370.000000,64.003960 370.000031,64.003914 381.370300,64.000069 
	C382.700317,63.999619 384.030334,64.000008 385.825806,64.000015 
z"/>
<path fill="#2B6BB2" opacity="1.000000" stroke="none" 
	d="
M323.243469,92.564079 
	C319.822876,85.985199 320.254486,79.439857 322.009583,73.042351 
	C323.618561,67.177376 329.246002,63.049339 335.702942,63.292412 
	C341.279144,63.502323 346.694550,64.816284 349.475006,70.879776 
	C352.759918,78.043350 352.540558,84.882187 349.518280,92.148285 
	C345.927338,100.781540 327.866272,102.009773 323.243469,92.564079 
M331.393829,78.135994 
	C331.651489,81.517563 331.525391,84.995506 332.339478,88.237358 
	C332.709747,89.711700 334.809967,91.385384 336.375244,91.691513 
	C337.336029,91.879417 339.559265,89.813950 339.839233,88.473000 
	C340.599640,84.830856 341.139221,80.984230 340.771576,77.318436 
	C340.509369,74.703911 339.862579,70.508865 335.934845,71.326538 
	C334.227600,71.681953 333.198364,75.294434 331.393829,78.135994 
z"/>
<path fill="#2B6BB2" opacity="1.000000" stroke="none" 
	d="
M284.462524,96.661560 
	C278.331207,97.545357 272.284546,99.493835 266.737396,98.539398 
	C256.417847,96.763847 253.810211,87.353752 255.230606,77.187950 
	C257.157593,63.396515 269.920685,60.986301 279.226624,65.695084 
	C283.366974,67.790092 287.174622,76.119858 285.836914,80.515366 
	C285.521606,81.551369 283.935669,82.698036 282.780243,82.896271 
	C277.316071,83.833763 271.798462,84.459946 266.256592,85.202896 
	C268.395325,92.040596 269.935852,92.498634 282.490326,90.140472 
	C283.238617,92.198242 284.005585,94.307327 284.462524,96.661560 
M275.009583,75.324547 
	C274.873993,72.274788 273.153870,69.585068 270.331726,70.287926 
	C266.674500,71.198746 264.632812,74.362892 265.332153,79.184578 
	C268.598877,78.742874 271.643097,78.369423 274.661407,77.846703 
	C274.889343,77.807228 274.933319,76.705429 275.009583,75.324547 
z"/>
<path fill="#2B6BB2" opacity="1.000000" stroke="none" 
	d="
M241.698456,52.798637 
	C246.129425,48.706333 246.341156,48.649456 254.507965,49.268745 
	C255.213120,52.390938 256.090271,55.163582 251.787445,57.071060 
	C250.400375,57.685959 250.168304,60.906242 249.264191,63.317871 
	C251.551224,63.769974 252.956238,64.047722 254.678925,64.388260 
	C254.678925,66.251480 254.678925,68.182289 254.678925,70.458420 
	C253.374008,70.756165 251.859268,71.101776 249.973907,71.531960 
	C249.973907,80.551949 249.973907,89.466988 249.973907,98.685776 
	C246.316208,98.685776 243.062866,98.685776 238.999771,98.685776 
	C238.999771,91.211525 238.897278,83.640732 239.050217,76.075111 
	C239.111404,73.048576 239.062988,70.465271 235.235229,70.526665 
	C234.892349,67.102280 233.747162,63.618481 237.830811,63.559498 
	C239.153030,59.691879 240.285049,56.380558 241.698456,52.798637 
z"/>
<path fill="#2B6BB2" opacity="1.000000" stroke="none" 
	d="
M196.296692,98.973114 
	C195.221939,98.153030 194.104446,97.354332 194.098053,96.546852 
	C193.990402,82.917664 194.021057,69.287384 194.021057,55.330746 
	C197.656555,55.330746 200.916611,55.330746 204.805023,55.330746 
	C204.805023,66.930389 204.805023,78.646828 204.805023,90.807106 
	C208.669647,90.807106 211.928421,90.807106 215.592041,90.807106 
	C215.592041,93.616631 215.592041,95.985298 215.592041,98.990410 
	C209.328995,98.990410 203.049988,98.990410 196.296692,98.973114 
z"/>
<path fill="#2B6BB2" opacity="1.000000" stroke="none" 
	d="
M562.555542,98.963951 
	C556.480469,97.228577 554.671143,93.176849 554.959900,87.613441 
	C555.166626,83.631042 555.264465,79.604126 554.889038,75.646591 
	C554.698425,73.637543 553.354248,71.737961 552.531555,69.788902 
	C552.064087,69.925758 551.596619,70.062622 551.129150,70.199486 
	C551.129150,68.393631 551.129150,66.587776 551.129150,64.781929 
	C551.545959,64.922180 551.962830,65.062424 552.379639,65.202675 
	C553.254456,63.418644 554.016479,61.566547 555.039612,59.872051 
	C555.861572,58.510666 556.756653,56.738182 558.050415,56.215786 
	C560.420776,55.258663 563.109314,55.089504 565.928772,54.540451 
	C565.928772,57.481033 565.928772,60.291870 565.928772,63.366825 
	C567.624146,63.755302 569.142883,64.103310 570.806396,64.484482 
	C570.806396,66.431519 570.806396,68.228638 570.806396,70.396637 
	C569.415405,70.731804 567.907837,71.095039 566.220947,71.501511 
	C566.220947,77.835739 566.220947,84.098038 566.220947,90.710258 
	C567.749023,90.896599 569.153809,91.067909 570.463379,91.227608 
	C571.614624,98.975578 571.572083,99.017769 562.555542,98.963951 
z"/>
<path fill="#2B6BB2" opacity="1.000000" stroke="none" 
	d="
M420.843384,91.127953 
	C421.855499,94.231232 424.124847,98.027229 418.851776,98.919617 
	C411.265747,100.203468 406.303497,97.385750 406.073242,91.738403 
	C405.803101,85.113243 406.009979,78.468628 406.009979,71.421768 
	C400.697205,71.521088 402.096161,67.872566 403.139832,65.350700 
	C404.094116,63.574196 404.896332,61.690865 406.047333,60.052601 
	C407.102417,58.550858 408.321136,56.943192 409.857483,56.060642 
	C411.498352,55.118061 413.595581,54.969933 415.955688,54.354496 
	C415.955688,57.539989 415.955688,60.443981 415.955688,63.669819 
	C418.062134,63.889133 419.794647,64.069511 421.745728,64.272652 
	C421.745728,66.434792 421.745728,68.360733 421.745728,70.597237 
	C419.998627,70.843437 418.263245,71.087982 416.014648,71.404854 
	C416.014648,76.884811 416.043732,82.327347 416.003601,87.769371 
	C415.980133,90.946503 418.136536,91.045341 420.843384,91.127953 
z"/>
<path fill="#2B6BB2" opacity="1.000000" stroke="none" 
	d="
M93.627441,92.976921 
	C86.273918,95.390427 80.254669,93.154053 76.997139,86.991737 
	C74.553978,82.369972 76.191673,73.427849 80.010338,70.539192 
	C84.930153,66.817558 93.143608,67.241570 97.856850,71.460495 
	C103.561302,76.566673 101.572632,87.711617 93.627441,92.976921 
z"/>
<path fill="#2B6BB2" opacity="1.000000" stroke="none" 
	d="
M540.217834,98.971466 
	C539.175781,98.136345 538.097961,97.322647 538.092651,96.502045 
	C537.992432,80.922165 538.018738,65.341461 538.018738,49.381592 
	C541.337646,49.381592 544.365845,49.381592 548.000000,49.381592 
	C548.000000,57.693779 548.000000,65.939903 548.000000,74.186035 
	C548.000000,82.275589 548.000000,90.365150 548.000000,98.989685 
	C545.225586,98.989685 542.953491,98.989685 540.217834,98.971466 
z"/>
<path fill="#75479C" opacity="1.000000" stroke="none" 
	d="
M78.035843,113.740524 
	C76.184143,107.962799 79.001114,101.495895 84.021797,99.503098 
	C89.534988,97.314812 95.501366,99.369789 98.084564,104.346687 
	C100.945572,109.858833 99.583839,116.260117 94.967911,118.997574 
	C89.132256,122.458374 82.567101,121.370270 79.157669,116.341614 
	C78.702293,115.669975 78.436020,114.870132 78.035843,113.740524 
z"/>
<path fill="#2B6BB2" opacity="1.000000" stroke="none" 
	d="
M128.992722,83.537140 
	C126.465858,90.148872 123.403122,92.141762 117.141708,92.024994 
	C112.202698,91.932892 109.409706,89.342033 107.905006,84.879944 
	C106.085175,79.483345 107.044212,75.727554 111.389572,72.145462 
	C114.977615,69.187653 118.918472,69.361603 122.997871,70.990738 
	C127.132767,72.642052 129.399933,75.483681 129.011612,80.116821 
	C128.928497,81.108582 128.998108,82.113144 128.992722,83.537140 
z"/>
<path fill="#2B6BB2" opacity="1.000000" stroke="none" 
	d="
M94.846748,42.968052 
	C99.957603,47.445831 100.925224,51.615284 98.466644,57.039963 
	C96.310371,61.797607 92.461815,63.654720 86.137642,62.989277 
	C81.856331,62.538788 77.387779,58.422218 77.345749,53.146980 
	C77.320068,49.923721 78.957672,45.784653 81.300583,43.653721 
	C84.938332,40.345135 89.864540,39.555531 94.846748,42.968052 
z"/>
<path fill="#75479C" opacity="1.000000" stroke="none" 
	d="
M48.148972,76.764740 
	C50.879780,71.016968 55.528824,69.405212 60.968113,70.089584 
	C65.412888,70.648827 68.151642,73.576134 69.444298,77.895920 
	C70.885872,82.713356 69.408501,86.576324 65.741646,89.731903 
	C62.231838,92.752327 58.286446,92.687637 54.226681,91.063835 
	C49.997513,89.372292 47.725040,86.349548 47.990120,81.642807 
	C48.073883,80.155548 48.037052,78.661507 48.148972,76.764740 
z"/>
<path fill="#2B6BB2" opacity="1.000000" stroke="none" 
	d="
M226.894882,64.001350 
	C228.570312,64.878494 230.807831,65.731026 230.828674,66.634697 
	C231.073517,77.247017 230.985825,87.866997 230.985825,98.737930 
	C227.204132,98.737930 223.947784,98.737930 220.344299,98.737930 
	C220.344299,87.380516 220.344299,76.123428 220.344299,64.000496 
	C222.282425,64.000496 224.354828,64.000496 226.894882,64.001350 
z"/>
<path fill="#2B6BB2" opacity="1.000000" stroke="none" 
	d="
M355.000000,77.013321 
	C355.000000,72.551788 355.000000,68.587814 355.000000,64.317535 
	C358.682129,64.317535 361.940155,64.317535 366.000000,64.317535 
	C366.000000,69.813759 366.000000,75.401878 366.000000,80.989990 
	C366.000000,86.451744 366.000000,91.913490 366.000000,97.683205 
	C362.317596,97.683205 359.061493,97.683205 355.000000,97.683205 
	C355.000000,91.015915 355.000000,84.263390 355.000000,77.013321 
z"/>
<path fill="#1D988C" opacity="1.000000" stroke="none" 
	d="
M106.653595,51.750206 
	C108.739090,45.142220 110.714699,43.873070 117.668053,43.972095 
	C122.784721,44.044968 125.413132,46.950466 126.711678,51.444008 
	C127.950859,55.732109 125.833313,60.849636 122.115486,62.955124 
	C118.433617,65.040245 111.164444,64.493477 108.974968,61.129677 
	C107.344131,58.624161 107.227043,55.133354 106.653595,51.750206 
z"/>
<path fill="#2B6BB2" opacity="1.000000" stroke="none" 
	d="
M51.027882,58.650101 
	C48.790859,51.841946 51.326431,45.649715 56.752930,44.153351 
	C63.791401,42.212490 69.584297,45.453899 70.684555,52.640873 
	C71.282112,56.544231 70.036446,60.328129 66.038910,62.577831 
	C61.913967,64.899239 57.893509,64.725845 53.995911,62.347759 
	C52.797752,61.616714 52.036148,60.170174 51.027882,58.650101 
z"/>
<path fill="#A7228B" opacity="1.000000" stroke="none" 
	d="
M69.475540,103.987930 
	C69.497345,107.351204 70.081444,110.795006 68.834625,113.342819 
	C66.867516,117.362495 59.545593,118.363754 55.736744,115.888611 
	C52.069630,113.505562 50.860096,107.552315 53.221832,103.510391 
	C55.707382,99.256569 60.760433,97.772850 65.359940,100.212936 
	C66.839783,100.998016 67.941826,102.495216 69.475540,103.987930 
z"/>
<path fill="#1D988C" opacity="1.000000" stroke="none" 
	d="
M152.740524,56.539459 
	C151.051361,61.185581 148.860001,64.441994 143.489197,64.050903 
	C139.092422,63.730743 136.104126,62.045227 134.831818,57.598324 
	C133.611252,53.332363 136.034332,47.971256 140.121140,46.415791 
	C144.753830,44.652554 150.297760,46.950596 151.945694,51.459049 
	C152.490738,52.950230 152.595642,54.602287 152.740524,56.539459 
z"/>
<path fill="#75479C" opacity="1.000000" stroke="none" 
	d="
M35.528934,46.040524 
	C40.653614,48.428165 43.518013,52.961876 42.658752,56.709080 
	C41.575115,61.434776 38.204716,63.991741 33.049637,63.999073 
	C28.405411,64.005676 24.465645,60.300648 24.039894,55.526134 
	C23.667927,51.354763 27.352034,46.714542 31.657866,46.054199 
	C32.788471,45.880806 33.966969,46.019661 35.528934,46.040524 
z"/>
<path fill="#2B6BB2" opacity="1.000000" stroke="none" 
	d="
M121.670128,101.188683 
	C126.011475,106.371895 125.980736,112.104591 121.883736,115.545517 
	C118.811104,118.126114 111.681396,117.434006 108.776207,114.273125 
	C106.587578,111.891853 105.956306,105.295586 108.217896,102.754051 
	C110.654236,100.016113 113.799736,98.069695 117.828529,99.399811 
	C119.047600,99.802277 120.198708,100.410576 121.670128,101.188683 
z"/>
<path fill="#A7228B" opacity="1.000000" stroke="none" 
	d="
M36.294167,72.158485 
	C42.550728,75.732010 43.768497,78.282669 41.953304,84.257225 
	C40.679340,88.450371 37.458103,90.076797 33.235142,89.999428 
	C27.762350,89.899162 24.905254,86.638870 25.000702,80.590759 
	C25.089172,74.984718 27.976072,72.030403 33.403286,72.003777 
	C34.235466,71.999695 35.067856,72.037346 36.294167,72.158485 
z"/>
<path fill="#1D988C" opacity="1.000000" stroke="none" 
	d="
M151.468201,76.979385 
	C152.457977,85.647133 151.634918,87.491005 146.402832,89.215576 
	C141.282257,90.903381 136.822281,89.111626 135.027985,84.645844 
	C133.139175,79.944824 134.760498,75.286873 139.090805,72.973679 
	C143.789520,70.463684 148.085190,71.768799 151.468201,76.979385 
z"/>
<path fill="#75479C" opacity="1.000000" stroke="none" 
	d="
M82.267151,127.266251 
	C92.161781,122.791168 97.584061,126.228569 96.996834,136.138458 
	C96.753189,140.250137 93.269928,143.030640 88.403481,142.998047 
	C83.581818,142.965775 79.912598,140.116028 80.103767,135.950058 
	C80.233292,133.127457 81.321724,130.348862 82.267151,127.266251 
z"/>
<path fill="#1D988C" opacity="1.000000" stroke="none" 
	d="
M109.306183,23.211311 
	C114.953545,20.651169 119.625793,21.001394 120.963074,24.870468 
	C121.988403,27.836996 121.919113,32.361759 120.278008,34.818100 
	C117.110725,39.558781 112.975708,38.786129 108.660889,35.974403 
	C104.764206,33.435146 105.145370,28.190058 109.306183,23.211311 
z"/>
<path fill="#2B6BB2" opacity="1.000000" stroke="none" 
	d="
M60.688904,21.684601 
	C66.093811,20.673555 69.239914,23.360331 70.703751,27.690109 
	C71.883179,31.178648 70.910912,34.820290 67.425095,36.674225 
	C63.727825,38.640610 59.938255,38.748913 56.683788,35.224903 
	C52.763275,30.979689 54.610363,24.022285 60.688904,21.684601 
z"/>
<path fill="#5BBA47" opacity="1.000000" stroke="none" 
	d="
M147.427414,27.916988 
	C148.352066,35.016945 145.937363,38.763123 140.825134,39.012321 
	C136.688446,39.213959 133.137115,38.469646 132.072906,33.743965 
	C130.961960,28.810841 132.654114,25.382242 136.882614,23.598894 
	C140.944077,21.885992 144.336777,23.206696 147.427414,27.916988 
z"/>
<path fill="#75479C" opacity="1.000000" stroke="none" 
	d="
M42.179962,24.719284 
	C46.256439,28.120785 45.674004,32.034325 43.985146,35.768456 
	C42.058247,40.028896 37.597858,39.777782 34.501537,38.653862 
	C32.162392,37.804790 29.977724,34.485912 29.214485,31.836905 
	C28.169043,28.208426 30.094334,24.697136 33.927708,23.761580 
	C36.379166,23.163286 39.220104,24.160870 42.179962,24.719284 
z"/>
<path fill="#5BBA47" opacity="1.000000" stroke="none" 
	d="
M174.062119,60.981621 
	C171.591263,65.551086 166.832520,67.454208 163.259323,65.670105 
	C159.654907,63.870415 157.926361,58.914028 159.528870,54.973492 
	C161.115051,51.073101 165.064117,49.085728 168.743469,50.336239 
	C173.397736,51.918091 175.501511,55.932373 174.062119,60.981621 
z"/>
<path fill="#2B6BB2" opacity="1.000000" stroke="none" 
	d="
M82.049347,27.390888 
	C83.372223,22.866734 86.752777,22.452383 90.060516,23.166311 
	C91.816719,23.545364 94.475677,25.390291 94.554619,26.704042 
	C94.713928,29.355494 94.130180,32.803349 92.439941,34.573532 
	C91.115639,35.960464 87.370529,36.139736 85.226364,35.377518 
	C82.123283,34.274426 81.561226,31.001583 82.049347,27.390888 
z"/>
<path fill="#A7228B" opacity="1.000000" stroke="none" 
	d="
M19.002254,77.061020 
	C21.246572,81.768997 18.945999,84.161949 15.444818,86.175674 
	C12.063043,88.120728 9.306344,86.484711 7.792533,83.985542 
	C6.019315,81.058098 6.073483,77.383530 9.424070,75.212776 
	C12.783573,73.036247 16.260485,72.859085 19.002254,77.061020 
z"/>
<path fill="#5BBA47" opacity="1.000000" stroke="none" 
	d="
M166.939026,86.002182 
	C162.231644,88.245346 159.837402,85.945869 157.824158,82.444778 
	C155.879990,79.063797 157.515640,76.306519 160.014862,74.792709 
	C162.942184,73.019600 166.616760,73.073509 168.787048,76.424202 
	C170.962723,79.783180 171.141632,83.260338 166.939026,86.002182 
z"/>
<path fill="#A7228B" opacity="1.000000" stroke="none" 
	d="
M70.680740,128.344666 
	C72.942894,131.929245 72.134628,135.152176 69.289551,136.892319 
	C67.301376,138.108353 63.513176,138.693817 61.894470,137.578705 
	C60.125523,136.360107 59.066498,132.800125 59.230701,130.363968 
	C59.554783,125.555809 65.834839,124.388474 70.680740,128.344666 
z"/>
<path fill="#75479C" opacity="1.000000" stroke="none" 
	d="
M105.064560,131.196838 
	C106.456093,126.582840 109.618271,124.909088 113.536804,126.235558 
	C115.367210,126.855179 117.370094,129.270538 117.812889,131.210266 
	C118.772362,135.413483 116.258293,138.737228 112.213310,138.778366 
	C107.775116,138.823517 105.502876,135.908875 105.064560,131.196838 
z"/>
<path fill="#5BBA47" opacity="1.000000" stroke="none" 
	d="
M167.273270,29.767952 
	C170.080078,34.588036 169.292923,38.956234 165.648270,40.694134 
	C162.137161,42.368362 157.882492,40.609409 156.904831,36.248253 
	C156.456573,34.248638 157.610489,30.636154 159.169434,29.753277 
	C161.179932,28.614687 164.324783,29.479073 167.273270,29.767952 
z"/>
<path fill="#2B6BB2" opacity="1.000000" stroke="none" 
	d="
M140.222260,112.337265 
	C134.215958,113.054321 129.492325,108.804985 131.436676,104.533302 
	C132.322662,102.586845 135.048416,100.336029 136.975693,100.302650 
	C139.238342,100.263451 142.666901,101.952377 143.562653,103.849136 
	C144.929260,106.742874 144.329590,110.369102 140.222260,112.337265 
z"/>
<path fill="#5BBA47" opacity="1.000000" stroke="none" 
	d="
M106.444458,6.266699 
	C110.556831,4.443758 114.293381,3.807313 116.551147,8.180227 
	C118.529640,12.012239 116.829620,16.624802 112.888016,17.356421 
	C110.747696,17.753695 107.731461,16.674959 105.981491,15.216617 
	C102.905708,12.653395 104.048264,9.377063 106.444458,6.266699 
z"/>
<path fill="#A7228B" opacity="1.000000" stroke="none" 
	d="
M39.085114,100.002258 
	C43.790661,99.593880 45.694756,102.366798 45.841713,105.865303 
	C46.005230,109.758095 43.281235,112.367233 39.542706,112.852669 
	C35.973816,113.316071 33.595558,111.061310 33.092896,107.530388 
	C32.502518,103.383286 33.964943,100.398369 39.085114,100.002258 
z"/>
<path fill="#A7228B" opacity="1.000000" stroke="none" 
	d="
M8.008673,33.277515 
	C9.153714,28.445004 12.580922,26.723618 16.164085,28.436054 
	C18.328913,29.470652 20.590092,33.302353 20.359741,35.635551 
	C20.027935,38.996410 17.135893,41.803638 12.882381,40.949848 
	C9.001265,40.170807 7.620546,37.461418 8.008673,33.277515 
z"/>
<path fill="#2B6BB2" opacity="1.000000" stroke="none" 
	d="
M62.106575,6.021021 
	C66.337227,4.404308 69.992157,4.169853 71.944283,8.586616 
	C73.541840,12.201184 72.410629,15.195993 68.744514,17.061684 
	C64.165405,19.392002 59.741692,16.473953 60.075119,11.120499 
	C60.180073,9.435437 61.141335,7.803709 62.106575,6.021021 
z"/>
<path fill="#5BBA47" opacity="1.000000" stroke="none" 
	d="
M152.666321,9.179279 
	C159.517853,9.018389 162.844986,12.963820 160.824570,18.288748 
	C159.772141,21.062548 155.167862,22.967089 152.452103,21.751993 
	C149.424500,20.397369 147.587509,15.448473 149.247711,12.565654 
	C149.971558,11.308782 151.257217,10.375448 152.666321,9.179279 
z"/>
<path fill="#A7228B" opacity="1.000000" stroke="none" 
	d="
M27.991209,14.271553 
	C27.807531,20.069021 25.592978,22.438812 21.168398,21.989712 
	C17.587446,21.626240 15.325804,18.275513 16.044226,14.013954 
	C16.708014,10.076464 19.508690,8.199899 23.108673,9.206598 
	C25.018757,9.740736 26.377811,12.245358 27.991209,14.271553 
z"/>
<path fill="#2B6BB2" opacity="1.000000" stroke="none" 
	d="
M229.127930,59.312325 
	C228.023483,59.729557 227.221741,59.975491 226.420013,59.975540 
	C222.128448,59.975803 219.530975,57.800766 220.074799,54.472340 
	C220.711578,50.575050 223.575623,49.661369 226.991150,50.040825 
	C231.485519,50.540123 231.187103,53.905670 230.840485,57.083508 
	C230.765121,57.774555 229.920792,58.381737 229.127930,59.312325 
z"/>
<path fill="#2B6BB2" opacity="1.000000" stroke="none" 
	d="
M365.941895,55.713585 
	C364.141602,57.401577 362.371399,59.715355 360.607849,59.710285 
	C358.742523,59.704922 355.729095,57.773815 355.336761,56.166515 
	C354.919495,54.456890 356.534180,50.973167 358.080994,50.371876 
	C360.222595,49.539349 363.841614,48.581482 365.183350,52.514854 
	C365.496521,53.432896 365.713623,54.383713 365.941895,55.713585 
z"/>
<path fill="#5BBA47" opacity="1.000000" stroke="none" 
	d="
M128.637604,3.049839 
	C128.395996,5.068423 127.834465,7.251324 127.110764,9.769373 
	C127.404961,7.807733 127.861320,5.510944 128.637604,3.049839 
z"/>
<path fill="#000000" opacity="1.000000" stroke="none" 
	d="
M516.218384,84.312065 
	C518.680542,83.167877 520.867126,82.314529 524.660706,80.834030 
	C523.847534,85.779274 523.455078,89.220810 522.473816,92.485359 
	C522.376648,92.808647 517.579407,92.733047 516.902893,91.641075 
	C515.763794,89.802483 516.180542,86.999969 516.218384,84.312065 
z"/>
<path fill="#000000" opacity="1.000000" stroke="none" 
	d="
M485.271118,78.899124 
	C485.296112,76.369904 485.376740,73.742737 486.365875,71.519814 
	C486.748108,70.660767 489.946655,69.928566 490.551636,70.507652 
	C492.315033,72.195595 493.416840,74.574669 495.225983,77.376472 
	C491.069794,78.067741 488.379639,78.515167 485.271118,78.899124 
z"/>
<path fill="#000000" opacity="1.000000" stroke="none" 
	d="
M303.875488,70.981636 
	C308.627014,75.175377 309.732880,85.910866 305.806793,90.024368 
	C304.454163,91.441559 301.887024,91.699562 299.023132,92.820351 
	C299.023132,85.458755 298.885803,79.172241 299.082703,72.896225 
	C299.177094,69.888016 300.973083,69.271667 303.875488,70.981636 
z"/>
<path fill="#000000" opacity="1.000000" stroke="none" 
	d="
M331.627502,77.781799 
	C333.198364,75.294434 334.227600,71.681953 335.934845,71.326538 
	C339.862579,70.508865 340.509369,74.703911 340.771576,77.318436 
	C341.139221,80.984230 340.599640,84.830856 339.839233,88.473000 
	C339.559265,89.813950 337.336029,91.879417 336.375244,91.691513 
	C334.809967,91.385384 332.709747,89.711700 332.339478,88.237358 
	C331.525391,84.995506 331.651489,81.517563 331.627502,77.781799 
z"/>
<path fill="#000000" opacity="1.000000" stroke="none" 
	d="
M275.036194,75.710999 
	C274.933319,76.705429 274.889343,77.807228 274.661407,77.846703 
	C271.643097,78.369423 268.598877,78.742874 265.332153,79.184578 
	C264.632812,74.362892 266.674500,71.198746 270.331726,70.287926 
	C273.153870,69.585068 274.873993,72.274788 275.036194,75.710999 
z"/>
</svg>