<svg version="1.2" baseProfile="tiny-ps" xmlns="http://www.w3.org/2000/svg" viewBox="0 0 750 220" width="750" height="220">
	<title>Page 1</title>
	<defs>
		<clipPath clipPathUnits="userSpaceOnUse" id="cp1">
			<path d="M0 0L750 0L750 220L0 220Z" />
		</clipPath>
	</defs>
	<style>
		tspan { white-space:pre }
		.shp0 { fill: #000000 } 
		.shp1 { fill: #050304 } 
		.shp2 { fill: #ff290b } 
		.shp3 { fill: #3361ae } 
	</style>
	<g id="Page 1" clip-path="url(#cp1)">
		<g id="Layer_1_1">
			<g id="Group: 2 objects">
				<g id="Group: 17 objects">
					<path id="Path" fill-rule="evenodd" class="shp0" d="M11.21 199.49C11 197.47 9.68 195.55 7.53 195.55C5.06 195.55 3.69 197.01 3.69 199.46C3.69 204.6 13.06 203.06 13.06 210.5C13.06 214.77 9.5 217 5.5 217C3.75 217 2.06 216.39 0.53 215.61C0.38 214.03 0.16 212.48 0 210.9L0.87 210.71C1.25 213.34 2.75 215.64 5.72 215.64C7.84 215.64 9.56 214.31 9.56 212.11C9.56 206.62 0.38 208.33 0.38 200.86C0.38 196.83 3.25 194.44 7.28 194.44C8.15 194.44 10.81 194.78 11.78 194.9C11.78 196.36 11.9 197.85 12.08 199.33L11.21 199.49Z" />
					<path id="Path" fill-rule="evenodd" class="shp0" d="M29.25 212.11C28.93 213.16 28.56 213.97 28.56 214.53C28.56 215.46 29.87 215.61 30.9 215.61L31.25 215.61L31.25 216.54C30 216.47 28.72 216.41 27.47 216.41C26.35 216.41 25.22 216.47 24.09 216.54L24.09 215.61L24.28 215.61C25.5 215.61 26.53 214.9 27 213.6L32 199.36C32.4 198.22 32.96 196.67 33.15 195.53C34.15 195.18 35.4 194.57 35.99 194.19C36.09 194.16 36.15 194.13 36.24 194.13C36.34 194.13 36.4 194.13 36.46 194.22C36.56 194.46 36.65 194.75 36.74 195L42.49 211.2C42.87 212.29 43.24 213.44 43.64 214.37C44.02 215.24 44.68 215.61 45.71 215.61L45.9 215.61L45.9 216.54C44.49 216.47 43.08 216.41 41.59 216.41C40.06 216.41 38.49 216.47 36.9 216.54L36.9 215.61L37.24 215.61C37.96 215.61 39.18 215.49 39.18 214.71C39.18 214.31 38.9 213.47 38.55 212.48L37.34 208.88L30.25 208.88L29.25 212.11ZM33.81 198.37L33.74 198.37L30.84 207.15L36.68 207.15L33.81 198.37Z" />
					<path id="Path" fill-rule="evenodd" class="shp0" d="M76.37 210.44L76.43 210.37L76.43 198.75C76.43 196.2 74.65 195.83 73.71 195.83L73.02 195.83L73.02 194.9C74.49 194.9 75.93 195.03 77.4 195.03C78.67 195.03 79.96 194.9 81.24 194.9L81.24 195.83L80.77 195.83C79.46 195.83 77.99 196.08 77.99 199.77L77.99 213.87C77.99 214.96 78.02 216.04 78.18 217L76.99 217L60.9 199.21L60.9 211.98C60.9 214.68 61.44 215.61 63.84 215.61L64.37 215.61L64.37 216.54C63.03 216.54 61.69 216.41 60.34 216.41C58.94 216.41 57.51 216.54 56.1 216.54L56.1 215.61L56.53 215.61C58.69 215.61 59.35 214.15 59.35 211.67L59.35 198.62C59.35 196.89 57.91 195.83 56.5 195.83L56.1 195.83L56.1 194.9C57.28 194.9 58.5 195.03 59.69 195.03C60.63 195.03 61.53 194.9 62.47 194.9L76.37 210.44Z" />
					<path id="Path" fill-rule="evenodd" class="shp0" d="M114.65 212.11C114.34 213.16 113.97 213.97 113.97 214.53C113.97 215.46 115.28 215.61 116.31 215.61L116.65 215.61L116.65 216.54C115.41 216.47 114.13 216.41 112.87 216.41C111.75 216.41 110.63 216.47 109.5 216.54L109.5 215.61L109.69 215.61C110.9 215.61 111.94 214.9 112.41 213.6L117.4 199.36C117.81 198.22 118.37 196.67 118.56 195.53C119.56 195.18 120.81 194.57 121.4 194.19C121.49 194.16 121.56 194.13 121.65 194.13C121.74 194.13 121.81 194.13 121.87 194.22C121.96 194.46 122.05 194.75 122.15 195L127.9 211.2C128.27 212.29 128.65 213.44 129.05 214.37C129.43 215.24 130.09 215.61 131.11 215.61L131.3 215.61L131.3 216.54C129.89 216.47 128.49 216.41 126.99 216.41C125.46 216.41 123.9 216.47 122.3 216.54L122.3 215.61L122.65 215.61C123.37 215.61 124.58 215.49 124.58 214.71C124.58 214.31 124.31 213.47 123.96 212.48L122.74 208.88L115.65 208.88L114.65 212.11ZM119.21 198.37L119.15 198.37L116.25 207.15L122.09 207.15L119.21 198.37Z" />
					<path id="Path" fill-rule="evenodd" class="shp0" d="M161.77 210.44L161.83 210.37L161.83 198.75C161.83 196.2 160.05 195.83 159.12 195.83L158.43 195.83L158.43 194.9C159.9 194.9 161.34 195.03 162.8 195.03C164.08 195.03 165.36 194.9 166.64 194.9L166.64 195.83L166.17 195.83C164.86 195.83 163.39 196.08 163.39 199.77L163.39 213.87C163.39 214.96 163.42 216.04 163.58 217L162.39 217L146.31 199.21L146.31 211.98C146.31 214.68 146.84 215.61 149.25 215.61L149.78 215.61L149.78 216.54C148.43 216.54 147.09 216.41 145.75 216.41C144.34 216.41 142.9 216.54 141.5 216.54L141.5 215.61L141.94 215.61C144.09 215.61 144.74 214.15 144.74 211.67L144.74 198.62C144.74 196.89 143.31 195.83 141.91 195.83L141.5 195.83L141.5 194.9C142.69 194.9 143.9 195.03 145.09 195.03C146.03 195.03 146.93 194.9 147.87 194.9L161.77 210.44Z" />
					<path id="Path" fill-rule="evenodd" class="shp0" d="M180.71 196.46C178.38 196.46 178.28 197.01 177.82 199.27L176.88 199.27C177 198.4 177.15 197.53 177.25 196.64C177.38 195.77 177.44 194.9 177.44 194L178.19 194C178.44 194.93 179.22 194.9 180.06 194.9L196.18 194.9C197.02 194.9 197.8 194.87 197.87 193.94L198.61 194.06C198.49 194.9 198.36 195.74 198.27 196.58C198.21 197.41 198.21 198.25 198.21 199.09L197.27 199.43C197.21 198.28 197.05 196.46 194.96 196.46L189.84 196.46L189.84 212.94C189.84 215.34 190.93 215.61 192.43 215.61L193.02 215.61L193.02 216.54C191.8 216.54 189.62 216.41 187.93 216.41C186.06 216.41 183.87 216.54 182.66 216.54L182.66 215.61L183.25 215.61C184.97 215.61 185.84 215.46 185.84 213L185.84 196.46L180.71 196.46Z" />
					<path id="Path" fill-rule="evenodd" class="shp0" d="M221.21 194.44C227.86 194.44 233.17 198.54 233.17 205.14C233.17 212.27 228.02 217 221.37 217C214.75 217 209.69 212.54 209.69 205.87C209.69 199.43 214.72 194.44 221.21 194.44ZM221.68 215.64C227.74 215.64 228.8 210.34 228.8 205.81C228.8 201.29 226.33 195.8 221.15 195.8C215.69 195.8 214.06 200.64 214.06 204.8C214.06 210.34 216.62 215.64 221.68 215.64Z" />
					<path id="Path" fill-rule="evenodd" class="shp0" d="M264.55 210.44L264.61 210.37L264.61 198.75C264.61 196.2 262.83 195.83 261.9 195.83L261.21 195.83L261.21 194.9C262.67 194.9 264.12 195.03 265.58 195.03C266.86 195.03 268.14 194.9 269.42 194.9L269.42 195.83L268.95 195.83C267.64 195.83 266.17 196.08 266.17 199.77L266.17 213.87C266.17 214.96 266.2 216.04 266.36 217L265.18 217L249.09 199.21L249.09 211.98C249.09 214.68 249.62 215.61 252.02 215.61L252.55 215.61L252.55 216.54C251.21 216.54 249.87 216.41 248.52 216.41C247.12 216.41 245.69 216.54 244.28 216.54L244.28 215.61L244.72 215.61C246.87 215.61 247.53 214.15 247.53 211.67L247.53 198.62C247.53 196.89 246.09 195.83 244.69 195.83L244.28 195.83L244.28 194.9C245.47 194.9 246.68 195.03 247.87 195.03C248.81 195.03 249.72 194.9 250.65 194.9L264.55 210.44Z" />
					<path id="Path" fill-rule="evenodd" class="shp0" d="M279.69 215.61L280.13 215.61C281.25 215.61 282.44 215.46 282.44 213.84L282.44 197.59C282.44 195.99 281.25 195.83 280.13 195.83L279.69 195.83L279.69 194.9C280.9 194.9 282.78 195.03 284.31 195.03C285.87 195.03 287.75 194.9 289.22 194.9L289.22 195.83L288.78 195.83C287.65 195.83 286.47 195.99 286.47 197.59L286.47 213.84C286.47 215.46 287.65 215.61 288.78 215.61L289.22 215.61L289.22 216.54C287.72 216.54 285.84 216.41 284.28 216.41C282.75 216.41 280.9 216.54 279.69 216.54L279.69 215.61Z" />
					<path id="Path" fill-rule="evenodd" class="shp0" d="M311.84 194.44C318.49 194.44 323.8 198.54 323.8 205.14C323.8 212.27 318.64 217 311.99 217C305.37 217 300.31 212.54 300.31 205.87C300.31 199.43 305.34 194.44 311.84 194.44ZM312.31 215.64C318.36 215.64 319.43 210.34 319.43 205.81C319.43 201.29 316.96 195.8 311.78 195.8C306.31 195.8 304.69 200.64 304.69 204.8C304.69 210.34 307.25 215.64 312.31 215.64Z" />
					<path id="Path" fill-rule="evenodd" class="shp0" d="M372.99 201.29C372.11 198.28 370.68 195.8 365.99 195.8C360.87 195.8 358.18 199.8 358.18 205.23C358.18 210.4 360.84 215.64 366.74 215.64C370.09 215.64 372.3 213.57 373.11 210.47L373.99 210.59C373.59 212.27 373.36 213.93 373.21 215.61C371.4 216.39 368.93 217 366.06 217C359.03 217 353.81 213.2 353.81 205.41C353.81 198.46 359.47 194.44 365.9 194.44C369.55 194.44 370.74 195.55 373.68 195.99C373.65 197.7 373.71 199.43 373.93 201.17L372.99 201.29Z" />
					<path id="Path" fill-rule="evenodd" class="shp0" d="M397.27 194.44C403.93 194.44 409.24 198.54 409.24 205.14C409.24 212.27 404.09 217 397.43 217C390.81 217 385.75 212.54 385.75 205.87C385.75 199.43 390.78 194.44 397.27 194.44ZM397.75 215.64C403.8 215.64 404.87 210.34 404.87 205.81C404.87 201.29 402.39 195.8 397.21 195.8C391.74 195.8 390.12 200.64 390.12 204.8C390.12 210.34 392.68 215.64 397.75 215.64Z" />
					<path id="Path" fill-rule="evenodd" class="shp0" d="M427.4 213.5C427.4 214.74 428.27 215.11 429.28 215.24C430.56 215.34 431.97 215.34 433.4 215.17C434.71 215.02 435.83 214.27 436.4 213.5C436.9 212.82 437.18 211.95 437.37 211.27L438.27 211.27C437.93 213.03 437.49 214.77 437.11 216.54C434.37 216.54 431.62 216.41 428.87 216.41C426.12 216.41 423.37 216.54 420.62 216.54L420.62 215.61L421.06 215.61C422.19 215.61 423.4 215.46 423.4 213.54L423.4 197.59C423.4 195.99 422.19 195.83 421.06 195.83L420.62 195.83L420.62 194.9C422.28 194.9 423.91 195.03 425.56 195.03C427.16 195.03 428.71 194.9 430.31 194.9L430.31 195.83L429.52 195.83C428.34 195.83 427.4 195.86 427.4 197.51L427.4 213.5Z" />
					<path id="Path" fill-rule="evenodd" class="shp0" d="M455.87 213.5C455.87 214.74 456.75 215.11 457.74 215.24C459.03 215.34 460.43 215.34 461.87 215.17C463.18 215.02 464.31 214.27 464.86 213.5C465.36 212.82 465.65 211.95 465.83 211.27L466.74 211.27C466.39 213.03 465.96 214.77 465.58 216.54C462.83 216.54 460.08 216.41 457.34 216.41C454.59 216.41 451.84 216.54 449.09 216.54L449.09 215.61L449.53 215.61C450.65 215.61 451.87 215.46 451.87 213.54L451.87 197.59C451.87 195.99 450.65 195.83 449.53 195.83L449.09 195.83L449.09 194.9C450.74 194.9 452.37 195.03 454.03 195.03C455.62 195.03 457.19 194.9 458.78 194.9L458.78 195.83L458 195.83C456.81 195.83 455.87 195.86 455.87 197.51L455.87 213.5Z" />
					<path id="Path" fill-rule="evenodd" class="shp0" d="M477.44 215.61L477.87 215.61C479 215.61 480.18 215.46 480.18 213.84L480.18 197.59C480.18 195.99 479 195.83 477.87 195.83L477.44 195.83L477.44 194.9C479.34 194.9 482.59 195.03 485.21 195.03C487.83 195.03 491.08 194.9 493.2 194.9C493.14 196.23 493.17 198.28 493.27 199.65L492.33 199.9C492.18 197.88 491.8 196.26 488.53 196.26L484.18 196.26L484.18 204.39L487.9 204.39C489.77 204.39 490.18 203.33 490.36 201.67L491.3 201.67C491.24 202.86 491.21 204.08 491.21 205.29C491.21 206.47 491.24 207.64 491.3 208.82L490.36 209C490.18 207.15 490.08 205.93 487.93 205.93L484.18 205.93L484.18 213.16C484.18 215.17 485.99 215.17 487.99 215.17C491.74 215.17 493.4 214.93 494.34 211.4L495.21 211.61C494.8 213.26 494.43 214.9 494.14 216.54C492.15 216.54 488.56 216.41 485.74 216.41C482.93 216.41 479.22 216.54 477.44 216.54L477.44 215.61Z" />
					<path id="Path" fill-rule="evenodd" class="shp0" d="M526.55 200.95C525.61 197.13 522.96 195.8 519.3 195.8C513.71 195.8 510.97 199.9 510.97 205.07C510.97 210.19 513.43 215.64 519.4 215.64C520.89 215.67 522.46 215.42 522.86 215.05L522.86 210.01C522.86 208.73 521.65 208.42 520.49 208.42L520.08 208.42L520.08 207.49C521.65 207.55 523.2 207.61 524.77 207.61C526.17 207.61 527.55 207.55 528.95 207.49L528.95 208.42L528.54 208.42C527.46 208.42 526.86 208.91 526.86 210.01L526.86 214.71L527.58 215.11L527.58 215.67C524.8 216.45 522.09 217 518.86 217C511.87 217 506.59 212.85 506.59 205.38C506.59 198.19 512.78 194.44 519.08 194.44C521.02 194.44 522.36 194.72 523.58 195C524.8 195.27 525.86 195.55 527.11 195.59C527.11 196.73 527.11 199.09 527.49 200.89L526.55 200.95Z" />
					<path id="Path" fill-rule="evenodd" class="shp0" d="M539.59 215.61L540.03 215.61C541.15 215.61 542.34 215.46 542.34 213.84L542.34 197.59C542.34 195.99 541.15 195.83 540.03 195.83L539.59 195.83L539.59 194.9C541.5 194.9 544.75 195.03 547.37 195.03C549.99 195.03 553.24 194.9 555.36 194.9C555.3 196.23 555.33 198.28 555.43 199.65L554.49 199.9C554.33 197.88 553.96 196.26 550.68 196.26L546.34 196.26L546.34 204.39L550.06 204.39C551.93 204.39 552.34 203.33 552.52 201.67L553.46 201.67C553.39 202.86 553.37 204.08 553.37 205.29C553.37 206.47 553.39 207.64 553.46 208.82L552.52 209C552.34 207.15 552.24 205.93 550.09 205.93L546.34 205.93L546.34 213.16C546.34 215.17 548.14 215.17 550.15 215.17C553.89 215.17 555.55 214.93 556.49 211.4L557.36 211.61C556.96 213.26 556.58 214.9 556.31 216.54C554.3 216.54 550.71 216.41 547.9 216.41C545.09 216.41 541.37 216.54 539.59 216.54L539.59 215.61Z" />
				</g>
				<g id="Group: 3 objects">
					<g id="Group: 1 objects">
						<path id="Path" fill-rule="evenodd" class="shp1" d="M217.82 158.1L215.18 158.1L215.18 1.72L217.82 1.72L217.82 158.1L217.82 158.1Z" />
					</g>
					<g id="Group: 2 objects">
						<g id="Group: 5 objects">
							<path id="Path" fill-rule="evenodd" class="shp0" d="M275.86 58.47C275.3 60.34 274.63 61.77 274.63 62.76C274.63 64.41 276.96 64.68 278.79 64.68L279.4 64.68L279.4 66.34C277.18 66.22 274.91 66.11 272.69 66.11C270.7 66.11 268.71 66.22 266.71 66.34L266.71 64.68L267.05 64.68C269.21 64.68 271.04 63.42 271.87 61.11L280.73 35.88C281.44 33.84 282.44 31.1 282.78 29.07C284.55 28.46 286.76 27.36 287.82 26.71C287.98 26.65 288.1 26.59 288.26 26.59C288.43 26.59 288.53 26.59 288.65 26.76C288.81 27.19 288.98 27.69 289.14 28.13L299.34 56.88C300 58.8 300.67 60.84 301.38 62.49C302.05 64.02 303.21 64.68 305.03 64.68L305.37 64.68L305.37 66.34C302.89 66.22 300.38 66.11 297.73 66.11C295.01 66.11 292.25 66.22 289.42 66.34L289.42 64.68L290.04 64.68C291.3 64.68 293.47 64.47 293.47 63.09C293.47 62.38 292.97 60.89 292.35 59.13L290.2 52.76L277.63 52.76L275.86 58.47ZM283.94 34.12L283.83 34.12L278.68 49.68L289.03 49.68L283.94 34.12Z" />
							<path id="Path" fill-rule="evenodd" class="shp0" d="M347.04 60.95C347.04 63.14 348.58 63.8 350.35 64.02C352.63 64.19 355.11 64.19 357.67 63.92C359.99 63.64 361.98 62.32 362.99 60.95C363.87 59.74 364.36 58.2 364.7 56.99L366.3 56.99C365.69 60.13 364.92 63.21 364.25 66.34C359.37 66.34 354.5 66.11 349.63 66.11C344.76 66.11 339.88 66.34 335.01 66.34L335.01 64.68L335.8 64.68C337.78 64.68 339.95 64.41 339.95 61L339.95 32.75C339.95 29.89 337.78 29.61 335.8 29.61L335.01 29.61L335.01 27.97C337.94 27.97 340.83 28.18 343.77 28.18C346.59 28.18 349.36 27.97 352.18 27.97L352.18 29.61L350.79 29.61C348.69 29.61 347.04 29.67 347.04 32.58L347.04 60.95Z" />
							<path id="Path" fill-rule="evenodd" class="shp0" d="M405.08 58.47C404.53 60.34 403.86 61.77 403.86 62.76C403.86 64.41 406.19 64.68 408.02 64.68L408.63 64.68L408.63 66.34C406.41 66.22 404.13 66.11 401.92 66.11C399.93 66.11 397.93 66.22 395.95 66.34L395.95 64.68L396.27 64.68C398.44 64.68 400.26 63.42 401.09 61.11L409.95 35.88C410.68 33.84 411.67 31.1 412 29.07C413.78 28.46 415.98 27.36 417.04 26.71C417.2 26.65 417.32 26.59 417.49 26.59C417.65 26.59 417.77 26.59 417.87 26.76C418.04 27.19 418.2 27.69 418.38 28.13L428.57 56.88C429.23 58.8 429.89 60.84 430.62 62.49C431.27 64.02 432.45 64.68 434.27 64.68L434.6 64.68L434.6 66.34C432.11 66.22 429.61 66.11 426.96 66.11C424.23 66.11 421.48 66.22 418.65 66.34L418.65 64.68L419.26 64.68C420.53 64.68 422.69 64.47 422.69 63.09C422.69 62.38 422.19 60.89 421.58 59.13L419.43 52.76L406.86 52.76L405.08 58.47ZM413.16 34.12L413.05 34.12L407.91 49.68L418.26 49.68L413.16 34.12Z" />
							<path id="Path" fill-rule="evenodd" class="shp0" d="M491.16 56.71L504.28 27.97C505.94 27.97 507.93 28.18 509.93 28.18C511.87 28.18 513.85 27.97 515.8 27.97L515.8 29.61L515.3 29.61C513.64 29.61 510.26 29.72 510.15 32.14C510.1 33.57 510.31 35.22 510.42 36.43L512.53 61.61C512.76 64.36 514.14 64.58 517.46 64.68L517.46 66.34C514.86 66.22 512.15 66.11 509.49 66.11C506.44 66.11 503.4 66.22 500.35 66.34L500.35 64.68C503.22 64.52 505.11 64.52 505.11 62.1C505.11 61.44 505.11 60.84 505.05 59.41L503.5 36.21L503.4 36.21L489.28 67.16L487.95 67.16L474.54 36.82L474.43 36.82L472.55 60.95C472.55 62.7 472.99 63.59 473.71 64.08C474.54 64.58 475.71 64.63 477.25 64.68L477.91 64.68L477.91 66.34C475.42 66.22 472.88 66.11 470.39 66.11C468.22 66.11 466 66.22 463.86 66.34L463.86 64.68L464.63 64.68C469 64.52 469.16 62.65 469.67 58.69L471.32 43.42C471.77 39.51 472 35.94 472 33.74C472 30.66 469.61 29.61 467.17 29.61L466.45 29.61L466.45 27.97C468.73 27.97 470.95 28.18 473.21 28.18C474.87 28.18 476.54 27.97 478.2 27.97L491.16 56.71Z" />
							<path id="Path" fill-rule="evenodd" class="shp0" d="M568.76 27.14C580.56 27.14 589.97 34.4 589.97 46.11C589.97 58.75 580.83 67.16 569.03 67.16C557.3 67.16 548.32 59.25 548.32 47.42C548.32 35.99 557.24 27.14 568.76 27.14ZM569.59 64.74C580.33 64.74 582.23 55.34 582.23 47.31C582.23 39.29 577.84 29.56 568.65 29.56C558.96 29.56 556.08 38.14 556.08 45.5C556.08 55.34 560.62 64.74 569.59 64.74Z" />
						</g>
						<g id="Group: 8 objects">
							<path id="Path" fill-rule="evenodd" class="shp0" d="M302.33 105.02C300.77 99.68 298.23 95.29 289.92 95.29C280.83 95.29 276.07 102.38 276.07 112C276.07 121.18 280.78 130.47 291.25 130.47C297.17 130.47 301.11 126.79 302.54 121.28L304.1 121.51C303.38 124.47 302.99 127.44 302.71 130.41C299.5 131.78 295.13 132.89 290.04 132.89C277.57 132.89 268.32 126.13 268.32 112.33C268.32 100.01 278.34 92.87 289.75 92.87C296.23 92.87 298.34 94.85 303.54 95.62C303.49 98.64 303.6 101.72 303.99 104.79L302.33 105.02Z" />
							<path id="Path" fill-rule="evenodd" class="shp0" d="M356.45 92.87C368.24 92.87 377.65 100.13 377.65 111.83C377.65 124.47 368.52 132.89 356.72 132.89C344.98 132.89 336.01 124.97 336.01 113.15C336.01 101.72 344.93 92.87 356.45 92.87ZM357.28 130.47C368.02 130.47 369.9 121.07 369.9 113.04C369.9 105.02 365.53 95.29 356.33 95.29C346.64 95.29 343.77 103.86 343.77 111.23C343.77 121.07 348.3 130.47 357.28 130.47Z" />
							<path id="Path" fill-rule="evenodd" class="shp0" d="M420.92 126.68C420.92 128.88 422.48 129.53 424.24 129.76C426.51 129.92 429 129.92 431.55 129.64C433.88 129.37 435.87 128.05 436.87 126.68C437.75 125.46 438.26 123.93 438.59 122.72L440.19 122.72C439.58 125.85 438.8 128.93 438.15 132.07C433.28 132.07 428.39 131.84 423.52 131.84C418.65 131.84 413.78 132.07 408.9 132.07L408.9 130.41L409.68 130.41C411.68 130.41 413.83 130.14 413.83 126.74L413.83 98.47C413.83 95.62 411.68 95.34 409.68 95.34L408.9 95.34L408.9 93.69C411.84 93.69 414.71 93.91 417.65 93.91C420.48 93.91 423.25 93.69 426.07 93.69L426.07 95.34L424.69 95.34C422.59 95.34 420.92 95.39 420.92 98.31L420.92 126.68Z" />
							<path id="Path" fill-rule="evenodd" class="shp0" d="M482.46 126.68C482.46 128.88 484.02 129.53 485.79 129.76C488.06 129.92 490.55 129.92 493.09 129.64C495.42 129.37 497.42 128.05 498.41 126.68C499.3 125.46 499.8 123.93 500.13 122.72L501.74 122.72C501.12 125.85 500.35 128.93 499.69 132.07C494.82 132.07 489.94 131.84 485.07 131.84C480.19 131.84 475.32 132.07 470.45 132.07L470.45 130.41L471.22 130.41C473.21 130.41 475.37 130.14 475.37 126.74L475.37 98.47C475.37 95.62 473.21 95.34 471.22 95.34L470.45 95.34L470.45 93.69C473.38 93.69 476.26 93.91 479.2 93.91C482.02 93.91 484.79 93.69 487.62 93.69L487.62 95.34L486.23 95.34C484.12 95.34 482.46 95.39 482.46 98.31L482.46 126.68Z" />
							<path id="Path" fill-rule="evenodd" class="shp0" d="M531.77 130.41L532.54 130.41C534.53 130.41 536.64 130.14 536.64 127.28L536.64 98.47C536.64 95.62 534.53 95.34 532.54 95.34L531.77 95.34L531.77 93.69C535.14 93.69 540.9 93.91 545.55 93.91C550.2 93.91 555.96 93.69 559.73 93.69C559.62 96.05 559.68 99.68 559.85 102.11L558.18 102.54C557.9 98.97 557.24 96.11 551.42 96.11L543.73 96.11L543.73 110.51L550.31 110.51C553.64 110.51 554.36 108.64 554.69 105.68L556.35 105.68C556.23 107.82 556.18 109.96 556.18 112.1C556.18 114.2 556.23 116.29 556.35 118.38L554.69 118.7C554.36 115.41 554.19 113.26 550.37 113.26L543.73 113.26L543.73 126.07C543.73 129.64 546.94 129.64 550.48 129.64C557.12 129.64 560.06 129.2 561.73 122.94L563.27 123.32C562.55 126.23 561.89 129.15 561.39 132.07C557.84 132.07 551.47 131.84 546.49 131.84C541.51 131.84 534.92 132.07 531.77 132.07L531.77 130.41Z" />
							<path id="Path" fill-rule="evenodd" class="shp0" d="M629.9 104.41C628.25 97.65 623.54 95.29 617.06 95.29C607.15 95.29 602.27 102.54 602.27 111.72C602.27 120.8 606.65 130.47 617.23 130.47C619.88 130.52 622.65 130.09 623.37 129.42L623.37 120.47C623.37 118.21 621.21 117.66 619.16 117.66L618.45 117.66L618.45 116.01C621.21 116.13 623.98 116.24 626.75 116.24C629.25 116.24 631.68 116.13 634.18 116.01L634.18 117.66L633.46 117.66C631.51 117.66 630.46 118.54 630.46 120.47L630.46 128.82L631.75 129.53L631.75 130.52C626.8 131.9 621.99 132.89 616.28 132.89C603.88 132.89 594.52 125.52 594.52 112.28C594.52 99.52 605.49 92.87 616.68 92.87C620.11 92.87 622.49 93.36 624.65 93.86C626.8 94.35 628.69 94.85 630.91 94.9C630.91 96.94 630.91 101.11 631.57 104.3L629.9 104.41Z" />
							<path id="Path" fill-rule="evenodd" class="shp0" d="M664.1 130.41L664.87 130.41C666.87 130.41 668.97 130.14 668.97 127.28L668.97 98.47C668.97 95.62 666.87 95.34 664.87 95.34L664.1 95.34L664.1 93.69C667.47 93.69 673.24 93.91 677.88 93.91C682.54 93.91 688.29 93.69 692.06 93.69C691.94 96.05 692.01 99.68 692.17 102.11L690.51 102.54C690.23 98.97 689.57 96.11 683.76 96.11L676.06 96.11L676.06 110.51L682.65 110.51C685.96 110.51 686.69 108.64 687.02 105.68L688.68 105.68C688.58 107.82 688.52 109.96 688.52 112.1C688.52 114.2 688.58 116.29 688.68 118.38L687.02 118.7C686.69 115.41 686.52 113.26 682.7 113.26L676.06 113.26L676.06 126.07C676.06 129.64 679.27 129.64 682.82 129.64C689.46 129.64 692.39 129.2 694.06 122.94L695.6 123.32C694.89 126.23 694.22 129.15 693.73 132.07C690.18 132.07 683.81 131.84 678.83 131.84C673.84 131.84 667.24 132.07 664.1 132.07L664.1 130.41Z" />
							<path id="Path" fill-rule="evenodd" class="shp0" d="M746.74 101.83C746.35 98.25 744.02 94.85 740.19 94.85C735.83 94.85 733.39 97.43 733.39 101.77C733.39 110.9 750 108.15 750 121.34C750 128.93 743.69 132.89 736.6 132.89C733.5 132.89 730.51 131.78 727.79 130.41C727.51 127.62 727.13 124.86 726.86 122.06L728.39 121.73C729.06 126.4 731.73 130.47 736.99 130.47C740.76 130.47 743.81 128.11 743.81 124.2C743.81 114.47 727.51 117.5 727.51 104.25C727.51 97.1 732.62 92.87 739.75 92.87C741.31 92.87 746.02 93.48 747.73 93.69C747.73 96.28 747.96 98.92 748.28 101.55L746.74 101.83Z" />
						</g>
					</g>
					<g id="Group: 2 objects">
						<g id="Group: 1 objects">
							<path id="Path" fill-rule="evenodd" class="shp2" d="M161.01 97.95L161.01 159.8L0 159.8L0 97.95C0.68 97.99 1.38 98.02 2.1 98.02C20.33 98.02 35.13 83.33 35.13 65.21C35.13 65.04 35.12 64.87 35.12 64.7L46.6 64.7C50.35 49.57 64.11 36.36 80.52 36.36C96.91 36.36 110.65 49.57 114.39 64.7L125.88 64.7C125.88 64.87 125.87 65.04 125.87 65.21C125.87 83.33 140.66 98.02 158.92 98.02C159.62 98.02 160.32 97.99 161.01 97.95Z" />
						</g>
						<g id="Group: 1 objects">
							<path id="Path" fill-rule="evenodd" class="shp3" d="M0 87.28L0 0L161.01 0L161.01 87.28L160.37 87.31C159.89 87.34 159.4 87.37 158.92 87.37C146.62 87.37 136.61 77.43 136.61 65.21L136.62 64.7L136.62 54.05L125.88 54.05L122.04 54.05C114.59 37.23 98.24 25.71 80.52 25.71C62.78 25.71 46.42 37.23 38.96 54.05L35.12 54.05L24.38 54.05L24.38 64.7L24.38 64.86L24.39 65.28C24.39 77.43 14.39 87.37 2.1 87.37C1.61 87.37 1.12 87.34 0.65 87.31L0 87.28Z" />
						</g>
					</g>
				</g>
			</g>
		</g>
		<g id="Web Layer">
		</g>
	</g>
</svg>