<svg version="1.2" baseProfile="tiny-ps" xmlns="http://www.w3.org/2000/svg" viewBox="0 0 964 1524" width="964" height="800">
	<title>Layer 1</title>
	<style>
		tspan { white-space:pre }
		.shp0 { fill: #000000 } 
		.shp1 { fill: #fa2c2e } 
	</style>
	<g id="Layer 1">
		<path id="&lt;Path&gt;" class="shp0" d="M783.43 -0.1C789.85 -0.1 796.27 -0.1 802.69 -0.1C766.91 19.65 741.06 49.32 722.23 86.03C707.12 75.11 673.02 76.09 658.78 87.16C700.93 91.03 719.45 122.66 715.44 168.75C709.72 234.33 655.63 298.7 596.45 309.26C558.25 316.08 532.96 301.45 521.66 277.53C503.44 238.96 528.15 183.46 545.46 156.28C595.85 77.15 685.61 17.25 783.43 -0.1Z" />
		<path id="&lt;Path&gt;" class="shp0" d="M518.26 65.63C520.82 68.48 515.43 71.91 513.73 73.56C495.39 91.35 476.58 115.56 470.67 147.22C450.83 142.18 429.71 148.22 418.54 158.55C457.6 155.91 476.02 184.24 478.6 215.21C483.75 277.03 441.58 345.4 386.81 352.32C345.86 357.5 326.15 326.71 325.62 291.13C324.75 232.02 360.79 181.46 391.35 148.35C427.34 109.35 466.88 77.96 518.26 65.63Z" />
		<path id="&lt;Path&gt;" class="shp0" d="M963.6 155.15C963.6 155.91 963.6 156.66 963.6 157.42C940.08 162.01 922.61 171.65 906.94 185.75C903.01 189.29 894.97 200.43 892.21 200.48C889.89 200.52 879.53 190.29 876.35 189.15C867.98 186.14 862.49 187.11 850.28 186.88C859.92 194.13 871.75 201.95 875.21 217.47C888.25 275.87 811.77 338.01 757.36 331.93C721.24 327.89 707.23 293.29 722.23 259.4C738.43 222.81 776.26 193.8 816.29 175.55C857 156.98 910.83 141.42 963.6 155.15Z" />
		<path id="&lt;Path&gt;" class="shp0" d="M296.16 202.74C298.09 202.33 298.3 203.63 298.42 205.01C282.3 220.62 272.22 242.26 268.96 270.73C250.33 269.48 238.88 275.41 230.43 284.33C251.21 280.09 267.86 289.77 275.76 302.46C304.09 347.97 269.88 430.56 221.37 437.31C182.57 442.71 169.19 406.16 171.51 371.59C176.69 294.32 242.12 227.59 296.16 202.74Z" />
		<path id="&lt;Path&gt;" class="shp0" d="M766.43 433.91C755.3 473.23 742.64 512.84 730.17 551.76C717.68 590.72 707.99 630.26 691.64 666.21C678.99 584.42 657.59 489.83 568.12 484.91C481.69 480.14 424.3 539.01 387.95 592.56C346.68 653.34 321.73 720.09 300.69 793.13C279.61 866.33 258.62 960.98 280.29 1040.16C299.84 1111.58 356.54 1164.12 452.54 1155.75C500.9 1151.53 542.48 1123.04 573.79 1097.95C607.94 1070.59 633.2 1038.32 657.64 1003.9C629.07 1074.59 595.36 1129.54 546.59 1177.28C499.93 1222.95 437.76 1263.2 350.55 1264.53C258.11 1265.95 192.68 1232.91 143.18 1187.48C93.09 1141.5 60.5 1080.63 47.99 999.37C34.2 909.74 54.02 822.97 78.59 754.6C127.82 617.61 218.61 511.75 333.55 442.98C363.76 424.9 395.72 410.32 431.01 398.78C467.96 386.7 509.27 379.45 555.66 377.25C645.1 373.03 708.86 403.3 766.43 433.91Z" />
		<path id="&lt;Path&gt;" class="shp1" d="M0.4 1524.03C0.4 1523.65 0.4 1523.28 0.4 1522.9C20.67 1459.31 37.91 1392.7 58.19 1329.12C217.59 1329.88 380.01 1327.61 537.53 1330.26C518.03 1394.62 500.75 1461.2 479.73 1524.03C319.96 1524.03 160.17 1524.03 0.4 1524.03Z" />
	</g>
</svg>