<svg version="1.2" baseProfile="tiny-ps" xmlns="http://www.w3.org/2000/svg" viewBox="0 0 1226 534" width="1226" height="600">
	<title>Layer 1</title>
	<style>
		tspan { white-space:pre }
		.shp0 { fill: #000000 } 
		.shp1 { fill: #fa2c2e } 
	</style>
	<g id="Layer 1">
		<g id="&lt;Group&gt;">
			<path id="&lt;Path&gt;" class="shp0" d="M49.46 245.66L49.46 283.4C49.46 298.29 40.11 307.54 25.09 307.54C8.39 307.54 -0.1 299.22 -0.1 282.8L-0.1 245.66L12.5 245.66L12.5 280.57C12.5 293.1 16.48 298.68 25.41 298.68C33.52 298.68 38.19 292.32 38.19 281.26L38.19 245.66L49.23 245.66L49.46 245.66Z" />
			<path id="&lt;Path&gt;" class="shp0" d="M122.17 245.66L122.17 306.5L113.09 306.5L111.63 304.76C100.77 291.71 89.54 278.22 78.65 263.3C78.65 263.77 78.65 278.17 78.65 306.5L68.49 306.5L68.49 245.66L77.72 245.66L77.76 245.73C88.92 259.05 100.46 272.82 112.03 288.58C112.03 288.08 112.03 273.77 112.03 245.66L121.99 245.66L122.17 245.66Z" />
			<path id="&lt;Path&gt;" class="shp0" d="M155.06 245.66L155.06 306.5L142.49 306.5L142.49 245.66L154.86 245.66L155.06 245.66Z" />
			<path id="&lt;Path&gt;" class="shp0" d="M229.92 245.66L205.5 306.5L195.3 306.5L172.54 245.66L186.31 245.66L186.36 245.79C191.39 260.26 196.59 275.23 201.92 292.8C207.28 275.85 212.24 262.03 218.21 245.77L218.26 245.66L229.62 245.66L229.92 245.66Z" />
			<path id="&lt;Path&gt;" class="shp0" d="M282.12 297.98L282.12 306.5L245.51 306.5L245.51 245.66L278.18 245.66L278.4 245.66L278.4 254.16C265.13 254.16 258.35 254.16 258.08 254.16C258.08 254.57 258.08 269.98 258.08 270.36C258.35 270.36 264.98 270.36 277.97 270.36L277.97 278.86C264.98 278.86 258.35 278.86 258.08 278.86C258.08 279.25 258.08 297.61 258.08 297.98C258.35 297.98 266.37 297.98 282.12 297.98Z" />
			<path id="&lt;Compound Path&gt;" fill-rule="evenodd" class="shp0" d="M345.04 306.52L330.68 306.52C322.9 290.54 318.99 282.47 318.93 282.33C318.7 282.33 312.37 282.33 311.99 282.33C311.99 282.59 311.99 290.64 311.99 306.5L299.44 306.5L299.44 245.66L320.6 245.66C332.84 245.66 340.15 251.63 340.15 261.65C340.15 269.42 336.81 275.16 330.04 279.25C330.14 279.45 335.14 288.55 345.04 306.52ZM311.99 273.8C312.23 273.8 313.81 273.8 316.71 273.8C325.28 273.8 327.54 267.1 327.54 263.12C327.54 254.83 320.34 254.16 318.11 254.16C314.28 254.16 312.24 254.16 311.99 254.16C311.99 254.57 311.99 273.42 311.99 273.8Z" />
			<path id="&lt;Path&gt;" class="shp0" d="M394.78 290.93C394.78 299.09 386.92 307.54 373.71 307.54C366.6 307.54 359.91 305.25 355.79 301.43L355.67 301.33L360.26 294.11L360.41 294.23C363.75 296.65 367.42 299.02 372.66 299.02C376.92 299.02 381.88 296.88 381.88 290.85C381.88 285.48 376.55 281.65 371.84 278.27L368.98 276.16L368.38 275.65C362.86 271.18 358.14 267.36 358.14 259.49C358.14 251.15 366.63 244.63 377.5 244.63C384.81 244.63 390.28 247.35 392.93 249.93L393.06 250.05L388.52 256.66L388.35 256.55C386.46 255.27 382.74 253.14 378.69 253.14C374.12 253.14 371.03 255.63 371.03 259.32C371.03 262.91 374.69 265.77 380.71 270.53L382.28 271.78C390.2 278.1 394.78 283.25 394.78 290.93Z" />
			<path id="&lt;Path&gt;" class="shp0" d="M423.31 245.66L423.31 306.5L410.73 306.5L410.73 245.66L423.1 245.66L423.31 245.66Z" />
			<path id="&lt;Path&gt;" class="shp0" d="M488.97 245.66L488.97 254.16C476.79 254.16 470.57 254.16 470.29 254.16C470.29 254.44 470.29 271.88 470.29 306.5L457.72 306.5C457.72 271.88 457.72 254.44 457.72 254.16C457.46 254.16 451.25 254.16 439.08 254.16L439.08 245.66L488.74 245.66L488.97 245.66Z" />
			<path id="&lt;Path&gt;" class="shp0" d="M552.89 245.66L552.75 245.95C539.39 269.32 532.71 281 532.69 281L532.69 306.5L520.1 306.5L520.11 281.1L500.87 245.66L515.83 245.66L516.25 246.53C520.21 254.7 523.95 262.46 527.99 272.39C531.1 265.49 534.41 259.67 537.6 254.03L542.26 245.66L552.55 245.66L552.89 245.66Z" />
			<path id="&lt;Compound Path&gt;" fill-rule="evenodd" class="shp0" d="M656.42 275.21C656.42 294.24 643.96 307.54 626.09 307.54C608.21 307.54 595.77 294.24 595.77 275.21C595.77 257.77 608.81 244.63 626.09 244.63C643.39 244.63 656.42 257.77 656.42 275.21ZM643.08 275.21C643.08 264.8 638.59 253.67 626.09 253.67C613.6 253.67 609.12 264.8 609.12 275.21C609.12 280.68 610.32 298.5 626.09 298.5C641.85 298.5 643.08 280.68 643.08 275.21Z" />
			<path id="&lt;Path&gt;" class="shp0" d="M680.47 254.16C680.47 254.57 680.47 273.24 680.47 273.62C680.74 273.62 687.37 273.62 700.35 273.62L700.35 282.16C687.37 282.16 680.74 282.16 680.47 282.16C680.47 282.41 680.47 290.53 680.47 306.5L667.92 306.5L667.92 245.66L700.48 245.66L700.69 245.66L700.69 254.16C687.48 254.16 680.74 254.16 680.47 254.16Z" />
			<path id="&lt;Path&gt;" class="shp0" d="M205.4 441.8C205.4 486.3 236.05 516.18 274.5 516.18C293.6 516.18 308.67 510.16 318.97 503.12L328.54 517.71C316.7 525.73 295.86 533.79 273.23 533.79C210.42 533.79 178.49 490.83 178.49 442.29C178.49 398.08 213.18 351.83 276.25 351.83C301.37 351.83 318.97 360.63 330.52 369.66L320.49 384.75C312.19 377.95 293.35 369.43 274.5 369.43C231 369.43 205.4 400.58 205.4 441.8Z" />
			<path id="&lt;Path&gt;" class="shp0" d="M513.76 449.86L513.76 530.77L491.13 530.77L491.13 454.62C491.13 431 481.09 418.66 460.72 418.66C442.89 418.66 426.54 431 426.54 455.13L426.54 530.77L403.94 530.77L403.94 414.66L393.79 414.66L393.79 405.13L403.94 405.13L403.94 405.12L426.3 405.12L426.3 405.13L426.33 405.13L426.33 414.66L426.3 414.66L426.3 420.69C438.08 408.13 456.21 402.1 469.27 402.1C498.16 402.1 513.76 418.17 513.76 449.86Z" />
			<path id="&lt;Path&gt;" class="shp0" d="M627.78 508.15L634.1 520.72C621.75 529.5 606.95 533.79 596.12 533.79C536.56 533.79 529.04 485.02 529.04 467.7C529.04 436.26 549.9 402.1 597.14 402.1C609.95 402.1 621.5 405.35 630.8 412.4L623.28 425.22C615.97 421.69 606.71 418.66 597.39 418.66C576.77 418.66 553.39 432.25 553.39 466.43C553.39 492.58 566.72 517.2 597.14 517.2C607.93 517.2 617.98 514.43 627.78 508.15Z" />
			<path id="&lt;Path&gt;" class="shp0" d="M819.68 449.86L819.68 530.77L797.06 530.77L797.06 454.62C797.06 431 787.02 418.66 766.66 418.66C748.8 418.66 732.46 431 732.46 455.13L732.46 530.77L709.85 530.77L709.85 414.66L699.65 414.66L699.65 405.13L709.85 405.13L709.85 405.12L732.24 405.12L732.24 420.69C744.05 408.13 762.15 402.1 775.21 402.1C804.08 402.1 819.68 418.17 819.68 449.86Z" />
			<path id="&lt;Path&gt;" class="shp0" d="M953.89 449.86L953.89 530.77L931.28 530.77L931.28 454.62C931.28 431 921.2 418.66 900.85 418.66C882.99 418.66 866.67 431 866.67 455.13L866.67 530.77L844.06 530.77L844.06 414.66L833.88 414.66L833.88 405.13L844.06 405.13L844.06 405.12L866.42 405.12L866.42 420.69C878.22 408.13 896.31 402.1 909.4 402.1C938.31 402.1 953.89 418.17 953.89 449.86Z" />
			<path id="&lt;Path&gt;" class="shp0" d="M1196.78 363.65C1196.78 357.38 1202.03 350.31 1211.09 350.31C1220.14 350.31 1225.43 357.38 1225.43 363.65C1225.43 370.43 1222.13 378.97 1211.09 378.97C1200.04 378.97 1196.78 370.43 1196.78 363.65Z" />
			<path id="&lt;Path&gt;" class="shp0" d="M1222.53 405.28L1222.56 405.28L1222.56 530.92L1199.98 530.92L1199.98 414.75L1189.99 414.75L1189.99 405.21L1222.53 405.21L1222.53 405.28Z" />
			<path id="&lt;Compound Path&gt;" fill-rule="evenodd" class="shp0" d="M1068.47 405.16L1089.49 405.09L1089.49 530.28L1071.37 530.28C1069.74 526.14 1070.45 525.06 1069.63 520.64C1055.19 528.92 1041.88 533.38 1028.55 533.38C994.54 533.38 970.31 507.34 970.31 468.59C970.31 429 995.35 402.14 1034.54 402.14C1045.15 402.14 1056.03 404.38 1067.99 408.23L1068.47 405.16ZM1067.99 427.32C1056.83 421.8 1046.5 419.04 1036.97 419.04C1010.33 419.04 992.36 438.69 992.36 469.13C992.36 499.04 1008.67 516.75 1032.89 516.75C1044.06 516.75 1054.93 512.33 1067.99 505.42L1067.99 427.32Z" />
			<path id="&lt;Path&gt;" class="shp0" d="M1177.21 512.02L1182.67 524.47C1174.95 529.45 1165.74 532.43 1157.29 532.43C1132.41 532.43 1120.46 518 1120.46 492.63L1120.46 418L1103.07 418L1103.07 405.06L1120.46 405.06L1120.46 375.21L1142.87 367.73L1142.87 405.06L1175.46 405.06L1175.46 418L1142.87 418L1142.87 488.41C1142.87 505.83 1146.35 516.27 1160.03 516.27C1168.24 516.27 1172.96 514.28 1177.21 512.02Z" />
			<path id="&lt;Path&gt;" class="shp0" d="M654.69 363.65C654.69 357.38 659.96 350.31 669.02 350.31C678.07 350.31 683.34 357.38 683.34 363.65C683.34 370.43 680.08 378.97 669.02 378.97C657.97 378.97 654.69 370.43 654.69 363.65Z" />
			<path id="&lt;Path&gt;" class="shp0" d="M680.47 405.28L680.5 405.28L680.5 530.92L657.9 530.92L657.9 414.75L647.93 414.75L647.93 405.21L680.47 405.21L680.47 405.28Z" />
			<path id="&lt;Path&gt;" class="shp0" d="M348.74 363.65C348.74 357.38 354.03 350.31 363.06 350.31C372.12 350.31 377.41 357.38 377.41 363.65C377.41 370.43 374.14 378.97 363.06 378.97C352.01 378.97 348.74 370.43 348.74 363.65Z" />
			<path id="&lt;Path&gt;" class="shp0" d="M374.53 405.28L374.55 405.28L374.55 530.92L351.94 530.92L351.94 414.75L341.97 414.75L341.97 405.21L374.53 405.21L374.53 405.28Z" />
			<g id="&lt;Group&gt;">
				<g id="&lt;Group&gt;">
					<g id="&lt;Group&gt;">
						<path id="&lt;Path&gt;" class="shp1" d="M1002.19 21.11L933.22 21.11L933.22 0.98L1002.19 0.98L1002.19 21.11Z" />
						<path id="&lt;Path&gt;" class="shp1" d="M992.97 360.8C950.1 354.68 912.36 333.99 885.7 304.35C815.97 303.19 770.16 266.7 770.16 196.42L770.16 21.01L734.01 21.01L734.01 0.88L809.6 0.88L809.65 0.88L809.65 196.42C809.65 247.05 827.81 276.45 869.96 283.86C853.95 259.19 844.76 231.66 844.76 196.42C844.76 125.15 893.63 67.53 961.8 45.21L961.8 72.19C914.37 97.09 882.27 141.5 882.27 196.42C882.27 268.09 930.71 324.01 996.41 340.73L992.97 360.8Z" />
					</g>
					<path id="&lt;Path&gt;" class="shp1" d="M961.78 196.42C961.78 224.03 964.53 245.86 981.95 265.08C997.78 245.61 1002.25 227.36 1002.25 196.42L1002.1 37.36C1009.48 36.48 1016.98 36.03 1024.6 36.03C1055.66 36.03 1086.92 39.43 1124.18 58.17L1126.71 43.07L1147.36 47.08L1135.21 117.87L1117.85 114.46C1116.35 82.66 1088.37 54.92 1041.73 54.92L1041.73 196.42C1041.73 237.67 1027.67 263.98 999.82 284.54C1032.77 315.37 1086.69 312.21 1113.25 298.66L1118.21 306.07C1098.53 319.46 1071.56 325.17 1048.18 325.17C980.06 325.17 924.22 268.71 924.22 196.42C924.22 161.86 938.68 134.08 961.8 111.72C961.78 158.38 961.78 186.61 961.78 196.42Z" />
				</g>
				<path id="&lt;Path&gt;" class="shp1" d="" />
			</g>
		</g>
	</g>
</svg>