<svg version="1.2" baseProfile="tiny-ps" xmlns="http://www.w3.org/2000/svg" viewBox="0 0 600 600" width="600" height="600">
	<title>usaa-svg</title>
	<style>
		tspan { white-space:pre }
		.shp0 { fill: #00385b } 
	</style>
	<g id="Layer 1">
		<path id="&lt;Path&gt;" class="shp0" d="M33.19 437.69L33.19 534.21C33.19 549.79 38.24 574.09 65.52 574.56C95.5 575.02 99.81 551.24 99.81 538.5L99.81 437.69L128.15 437.69L128.15 535.2C128.15 572.24 108.33 599.59 65.52 599.59C36.56 599.59 1.96 590.55 1.96 535.76L1.96 437.69L33.19 437.69Z" />
		<path id="&lt;Path&gt;" class="shp0" d="M246.5 472.71C240.76 469.46 231.32 459.22 207.87 459.22C191.9 459.22 181.1 467.42 181.1 478.86C181.1 489.56 190.12 496.46 198.87 500.43C207.62 504.43 213.47 506.97 223.54 511.79C236.32 517.78 251.29 530.37 251.29 551.6C251.29 579.2 228.05 599.2 195.82 599.29C173.29 599.28 158.26 597.42 150.74 593.72L147.86 563.13C160.39 571.24 175.87 575.3 194.27 575.3C202.03 575.3 219.27 570.08 219.27 554.86C219.27 540.57 205.67 536.14 202.25 534.34C195.63 530.9 187.54 527.4 180.93 524.27C168.41 518.4 150.09 506.97 150.09 482.87C150.09 448.18 182.27 435.42 207.87 435.42C221.56 435.42 234.44 438.32 246.5 444.14L246.5 472.71Z" />
		<path id="&lt;Compound Path&gt;" fill-rule="evenodd" class="shp0" d="M534.73 596.04L500.7 596.04L490.9 568.37L432.73 568.37L422.89 596.04L364.85 596.04L355.09 568.37L296.91 568.37L287.07 596.04L256.35 596.04L312.63 450.71L307.21 437.44L341.21 437.44L395.64 587.02L448.43 450.71L443 437.44L477.01 437.44L534.73 596.04ZM347.29 546.89L327.16 484.78L304.58 546.89L347.29 546.89ZM483.11 546.89L462.95 484.78L440.41 546.89L483.11 546.89Z" />
		<path id="&lt;Path&gt;" class="shp0" d="M28.3 249.15C37.75 249.15 47.74 252.4 58.29 258.89L194.91 336.16L184.25 380.94L58.29 309.68C47.71 303.15 37.71 299.89 28.3 299.89C18.94 299.89 10.06 302.88 1.68 308.88L0.25 259.32C9.53 252.54 18.88 249.15 28.3 249.15Z" />
		<path id="&lt;Path&gt;" class="shp0" d="M28.3 184.36C37.75 184.36 47.74 187.6 58.29 194.1L208.48 279.04L197.85 323.82L58.29 244.89C47.71 238.37 37.71 235.1 28.3 235.1C18.94 235.1 10.06 238.1 1.68 244.09L0.25 194.53C9.53 187.75 18.88 184.36 28.3 184.36Z" />
		<path id="&lt;Path&gt;" class="shp0" d="M28.3 119.58C37.75 119.58 47.74 122.82 58.29 129.29L222.08 221.95L211.46 266.77L58.29 180.09C47.71 173.58 37.71 170.33 28.3 170.33C18.94 170.33 10.06 173.32 1.68 179.3L0.25 129.75C9.53 122.97 18.88 119.58 28.3 119.58Z" />
		<path id="&lt;Path&gt;" class="shp0" d="M224.99 209.59L58.3 115.33C48.52 108.81 38.53 105.54 28.3 105.54C18.1 105.54 9.23 108.53 1.68 114.5L0.25 64.96C8.78 58.18 18.13 54.79 28.3 54.79C38.51 54.79 48.51 58.04 58.3 64.54L193.79 141.22L226.89 11.56C228.92 3.9 234.13 0.07 242.53 0.07L290.21 0.07C297.33 0.07 302.11 2.85 304.55 8.41L329.65 8.41C340.73 8.41 348.85 17.14 348.77 26.96L348.77 41.8C348.48 41.95 344.7 43.74 343.79 43.28L342.46 40.6C342.46 38.2 340.5 35.39 337.12 35.39L311.99 43C311.44 43.13 309.98 43.89 309.98 45.47L320.24 83.09L468.65 167.04C478.84 173.55 488.81 176.81 498.55 176.81C508.3 176.81 517.19 173.82 525.22 167.82L526.66 217.37C517.8 224.16 508.43 227.56 498.55 227.56C488.68 227.56 478.72 224.31 468.65 217.82L276.82 109.37L262.79 50.87L224.99 209.59Z" />
		<path id="&lt;Path&gt;" class="shp0" d="M468.67 231.83C478.23 238.33 488.19 241.58 498.56 241.58C508.9 241.58 517.78 238.58 525.21 232.6L526.66 282.15C517.46 288.96 508.09 292.37 498.56 292.37C489.02 292.37 479.05 289.11 468.67 282.58L294.58 184.15L280.59 125.41L468.67 231.83Z" />
		<path id="&lt;Path&gt;" class="shp0" d="M468.65 296.6C478.23 303.09 488.2 306.34 498.57 306.34C508.9 306.34 517.79 303.35 525.24 297.38L526.66 346.94C517.47 353.74 508.11 357.14 498.57 357.14C489.03 357.14 479.06 353.88 468.65 347.36L312.44 259.04L298.42 200.29L468.65 296.6Z" />
		<path id="&lt;Path&gt;" class="shp0" d="M468.64 361.36C478.23 367.9 488.2 371.17 498.57 371.17C508.9 371.17 517.79 368.17 525.24 362.17L526.66 411.7C517.47 418.54 508.1 421.96 498.57 421.96C489.03 421.96 479.06 418.69 468.64 412.16L330.31 333.89L316.29 275.22L468.64 361.36Z" />
		<path id="&lt;Compound Path&gt;" fill-rule="evenodd" class="shp0" d="M566.23 428.47C584.91 428.47 599.78 443.14 599.78 461.46C599.78 480.07 584.91 494.59 566.08 494.59C547.42 494.59 532.27 480.07 532.27 461.46C532.27 443.14 547.42 428.47 566.08 428.47L566.23 428.47ZM566.08 433.6C551.08 433.6 538.78 446.06 538.78 461.46C538.78 477.13 551.08 489.46 566.23 489.46C581.42 489.6 593.55 477.13 593.55 461.59C593.55 446.06 581.42 433.6 566.23 433.6L566.08 433.6ZM559.72 480.66L553.64 480.66L553.64 443.86C556.84 443.42 559.87 442.98 564.44 442.98C570.19 442.98 573.98 444.14 576.26 445.78C578.53 447.39 579.75 449.87 579.75 453.39C579.75 458.25 576.42 461.18 572.32 462.34L572.32 462.62C575.67 463.21 577.92 466.14 578.69 471.57C579.61 477.3 580.51 479.49 581.12 480.66L574.75 480.66C573.83 479.49 572.91 476.12 572.16 471.3C571.24 466.6 568.83 464.83 563.96 464.83L559.72 464.83L559.72 480.66ZM559.72 460.28L564.11 460.28C569.13 460.28 573.37 458.52 573.37 453.98C573.37 450.75 570.95 447.54 564.11 447.54C562.14 447.54 560.79 447.66 559.72 447.81L559.72 460.28Z" />
	</g>
</svg>