<?xml version="1.0" encoding="utf-8"?>
<!-- Generator: Adobe Illustrator 19.2.1, SVG Export Plug-In . SVG Version: 6.00 Build 0)  -->
<svg version="1.1" id="layer" xmlns="http://www.w3.org/2000/svg" xmlns:xlink="http://www.w3.org/1999/xlink" x="0px" y="0px"
	 viewBox="0 0 652 652" style="enable-background:new 0 0 652 652;" xml:space="preserve">
<style type="text/css">
	.st0{fill:#006848;}
	.st1{fill:#D5CA9F;}
	.st2{fill:#FFFFFF;}
</style>
<path class="st0" d="M249.7,277.1h8v35.1c0,3.4,1.4,5.1,4.2,5.1s4.3-1.7,4.3-5.1v-35.1h8v34.7c0,8-4.6,12.3-12.2,12.3
	c-7.6,0-12.2-4.4-12.2-12.3L249.7,277.1z"/>
<path class="st0" d="M283,323.5v-46.4h7.4l9.7,26.5h0.1v-26.5h7.2v46.4h-6.9l-10.2-29h-0.1v29H283z"/>
<path class="st0" d="M317.4,323.5v-46.4h8v46.4H317.4z"/>
<path class="st0" d="M351.8,277.1h7.8l-9.7,46.4h-8l-9.7-46.4h7.8l5.8,32.2h0.1L351.8,277.1z"/>
<path class="st0" d="M365.3,323.5v-46.4h21.3v7h-13.4v12h10.3v7h-10.3v13.6h14.3v7H365.3z"/>
<path class="st0" d="M403.1,323.5h-8v-46.4h11.2c8.9,0,13.4,3.8,13.4,13.7c0,7.5-2.9,10.5-5.6,11.7l6.8,21h-8.1l-5.6-19.2
	c-1.4,0.1-2.7,0.2-4.1,0.2V323.5z M403.1,297.9h2.8c4.3,0,5.9-1.6,5.9-7.1c0-5.5-1.6-7.1-5.9-7.1h-2.8V297.9z"/>
<path class="st0" d="M443.1,288.5c-0.3-4-2.4-5.1-4.2-5.1c-2.6,0-4,1.7-4,4.6c0,7.9,16.2,11.7,16.2,24.3c0,7.6-5.1,11.9-12.6,11.9
	c-7.5,0-11.6-5.9-12-12.9l7.6-1.1c0.3,4.7,2.2,7,4.8,7c2.8,0,4.6-1.5,4.6-4.2c0-9.2-16.2-11.6-16.2-24.9c0-7.3,4.5-11.6,12.3-11.6
	c6.5,0,10.4,4.7,11,11.2L443.1,288.5z"/>
<path class="st0" d="M459.5,323.5v-46.4h8v46.4H459.5z"/>
<path class="st0" d="M482.1,284h-7.7v-7h23.4v7h-7.7v39.5h-8V284z"/>
<path class="st0" d="M518.1,323.5h-8v-19.3l-9.6-27.2h8.1l5.6,17.7h0.1l5.4-17.7h8.1l-9.6,27.1L518.1,323.5z"/>
<path class="st0" d="M547.9,286.8c0-4.2,2.4-7.6,7.8-7.6s7.8,3.4,7.8,7.6v15.2c0,4.2-2.4,7.6-7.8,7.6s-7.8-3.4-7.8-7.6V286.8z
	 M553,301.9c0,2.2,0.6,3.3,2.7,3.3c2.1,0,2.7-1.1,2.7-3.3v-15c0-2.2-0.7-3.3-2.7-3.3s-2.7,1.1-2.7,3.3V301.9z"/>
<path class="st0" d="M569.2,309.2v-29.5h14.2v4.4h-9.1v7.6h6.8v4.4h-6.8v13.1H569.2z"/>
<path class="st0" d="M264.2,352.3c-0.3-4-2.4-5.1-4.2-5.1c-2.6,0-4,1.7-4,4.6c0,7.9,16.2,11.7,16.2,24.3c0,7.6-5.1,11.9-12.6,11.9
	c-7.5,0-11.6-5.9-12-12.8l7.6-1.1c0.3,4.7,2.2,7,4.8,7c2.8,0,4.6-1.5,4.6-4.2c0-9.2-16.2-11.6-16.2-24.9c0-7.3,4.5-11.6,12.3-11.6
	c6.5,0,10.3,4.7,11,11.3L264.2,352.3z"/>
<path class="st0" d="M279.5,352.1c0-6.5,3.9-11.9,12.2-11.9c8.4,0,12.2,5.3,12.2,11.9v24c0,6.6-3.8,11.9-12.2,11.9
	c-8.4,0-12.2-5.3-12.2-11.9V352.1z M287.4,375.8c0,3.5,1,5.1,4.2,5.1s4.2-1.7,4.2-5.1v-23.5c0-3.5-1-5.1-4.2-5.1s-4.2,1.7-4.2,5.1
	V375.8z"/>
<path class="st0" d="M312.8,340.9h8v35c0,3.4,1.4,5.1,4.2,5.1s4.2-1.7,4.2-5.1v-35h8v34.7c0,8-4.6,12.3-12.2,12.3
	c-7.6,0-12.2-4.4-12.2-12.3L312.8,340.9z"/>
<path class="st0" d="M350.8,347.8h-7.7v-6.9h23.4v6.9h-7.7v39.5h-8V347.8z"/>
<path class="st0" d="M372.4,387.3v-46.4h8v18.9h8.5v-18.9h8v46.4h-8v-20.6h-8.5v20.6H372.4z"/>
<path class="st0" d="M421.3,387.3v-46.4h22.2v6.9h-14.2v12H440v6.9h-10.7v20.6L421.3,387.3z"/>
<path class="st0" d="M450.8,387.3v-46.4h8v39.5h12.5v6.9L450.8,387.3z"/>
<path class="st0" d="M477.5,352.1c0-6.5,3.8-11.9,12.2-11.9c8.4,0,12.2,5.3,12.2,11.9v24c0,6.6-3.8,11.9-12.2,11.9
	c-8.4,0-12.2-5.3-12.2-11.9V352.1z M485.4,375.8c0,3.5,1,5.1,4.2,5.1s4.2-1.7,4.2-5.1v-23.5c0-3.5-1-5.1-4.2-5.1s-4.2,1.7-4.2,5.1
	V375.8z"/>
<path class="st0" d="M518.8,387.3h-8v-46.4H522c8.9,0,13.4,3.8,13.4,13.7c0,7.5-2.9,10.5-5.6,11.7l6.7,21h-8.1l-5.6-19.2
	c-1.4,0.1-2.7,0.2-4.1,0.2L518.8,387.3z M518.8,361.7h2.8c4.3,0,5.9-1.6,5.9-7.1c0-5.5-1.6-7.1-5.9-7.1h-2.8V361.7z"/>
<path class="st0" d="M545.2,387.3v-46.4h8v46.4H545.2z"/>
<path class="st0" d="M563.2,340.9h11.8c8.2,0,12.6,4.5,12.6,14v18.3c0,9.5-4.4,14-12.6,14h-11.8V340.9z M571.2,380.7h2.8
	c4.2,0,5.7-1.6,5.7-6.5v-20.3c0-4.9-1.5-6.5-5.7-6.5h-2.8V380.7z"/>
<path class="st0" d="M601.2,387.3h-7.7l8.6-46.4h9.9l8.6,46.4h-7.7l-1.4-10.3h-8.7L601.2,387.3z M603.8,370h6.4l-3.2-19.9h-0.1
	L603.8,370z"/>
<rect x="226.7" y="277.1" class="st1" width="2" height="600"/>
<path class="st2" d="M183.7,269.4c0-3.2,2.9-13,2.9-13s-18.1,10.7-18.1,22.8c0,8.5,5.4,13.4,5.4,15.6c0,2.5-11,7.6-43.7,7.6
	L106.3,342l-8.2,5.3L88.2,366H69.7L81,347.6l-2.7-5.7l27.1-40.7c-42.4,0-47.9-5.1-47.9-6c0-2.4,18.5-10.8,18.5-25.1
	c0-6.6-6.6-14.6-6.6-14.6c-3.2,27.7-45,21.1-45,52.5c0,12.9,15.7,18.4,31.1,19.5l-5.3,7.9c-2,3-0.4,6.3,2,11.2l-10.4,16.7
	c0,0-4.8,3.4-5.8,5.5c-2.2,4.3,2.3,10.6,9.4,22.3h50.7c17-9.6,24-13.6,24-17.6l-0.3-4.2l9.8-17c2.6-1.2,8.8-4.3,11.5-8.6l8.9-14.5
	c25.4-0.5,52.1-10.7,52.1-32.5C202.1,282.1,183.8,280.2,183.7,269.4 M148.1,326l-9.8,16c-2.7,4.4-11,7.8-11,7.8l-10.8,18.8l0.4,4.9
	c0.1,2.6-16.7,11.6-21.8,14.5H47.4c-1.7-3-9.9-14.7-8.4-17.6c0.6-1.1,2.9-2.8,5.4-4.7l11.6-18.7c-2.4-5-4.1-8-3-9.6l8.6-12.7
	c-9.6,0-33.8-2.3-33.8-16.4c0-26.1,36.9-24.9,42.9-44.9c1.3,2.1,2.1,4.5,2.2,6.9c0,13.4-18.5,19.6-18.5,25c0,7.6,25.7,9.3,45.1,9.3
	l-24.8,37.1l2.7,5.8l-13.4,21.8h26.3l10.5-19.7l8.1-5.2l23.3-38.7c31.6,0,45.1-5.1,45.1-10.8c0-3.8-5.4-7.7-5.4-15.6
	c0-7.9,9.3-14.7,9.3-14.7c-4.8,17.9,17.7,17.9,17.7,32.2C198.8,316.9,171.8,326,148.1,326"/>
<path class="st1" d="M187.6,269.4c0-5.7,5.6-22.6,5.6-22.6s-28.6,15.8-28.6,32.4c0.2,5.2,1.8,10.2,4.6,14.6
	c-8.4,3.9-25.1,4.7-41.3,4.7l-24.5,40.7l-8.3,5.3l-9.3,17.5h-9.3l8.7-14.2l-2.7-5.6l30-45c-33.9,0-40.9-1.1-48.6-3
	c0,0,15.7-10,15.7-24.1c0-9.3-11.8-23.7-11.8-23.7l-4.4,14.7c-4.7,16-43.2,15.8-43.2,47c0,13.6,13,20.4,28.2,22.7l-1.7,2.5
	c-2.8,4.3-1.4,8.6,0.8,13.2L39,360.8c0,0-4.9,3.4-6.3,6.3c-3,6,0.9,12.2,10.7,27.8h54.1c21.2-12,26.7-15.1,26.7-21.9
	c0,0-0.1-1.5-0.2-2.8l8.6-14.9c3.4-1.7,9.2-5,12-9.6l7.8-12.7c26.6-1.1,53.8-12.5,53.8-36.3C206,280.6,187.7,276.6,187.6,269.4
	 M150,329.2l-8.9,14.5c-2.6,4.3-8.9,7.5-11.5,8.6l-9.8,17l0.3,4.2c0,4-7,8-24,17.6H45.5c-7.1-11.7-11.6-18-9.4-22.3
	c1-2,5.8-5.5,5.8-5.5l10.4-16.7c-2.4-4.9-4-8.2-2-11.3l5.3-7.9c-15.5-1.1-31.1-6.5-31.1-19.4c0-31.4,41.9-24.8,45-52.5
	c0,0,6.5,8,6.5,14.6c0,14.3-18.5,22.7-18.5,25.1c0,0.9,5.5,6,47.9,6l-27.1,40.7l2.7,5.7L69.7,366h18.5l9.9-18.7l8.2-5.3l23.9-39.6
	c32.8,0,43.7-5,43.7-7.6c0-2.1-5.4-7.1-5.4-15.6c0-12.1,18.1-22.8,18.1-22.8s-2.9,9.8-2.9,13c0,10.8,18.3,12.6,18.3,27.3
	C202.1,318.6,175.4,328.8,150,329.2"/>
<path class="st0" d="M181.2,264.5c0,0-9.3,6.9-9.3,14.7c0,7.8,5.4,11.8,5.4,15.6c0,5.7-13.4,10.8-45.1,10.8l-23.3,38.7l-8.1,5.2
	l-10.5,19.7H63.9l13.4-21.8l-2.7-5.8l24.7-37.2c-19.4,0-45.1-1.7-45.1-9.3c0-5.5,18.5-11.6,18.5-25c-0.1-2.5-0.9-4.9-2.2-6.9
	c-6,20-42.9,18.8-42.9,44.9c0,14.1,24.2,16.4,33.8,16.4l-8.6,12.7c-1.1,1.6,0.6,4.6,3,9.6l-11.6,18.7c-2.4,2-4.8,3.7-5.4,4.7
	c-1.5,2.9,6.7,14.7,8.4,17.6h47.8c5.1-3,22-11.9,21.8-14.5l-0.4-4.9l10.8-18.8c0,0,8.3-3.4,11-7.8l9.8-16c23.7,0,50.7-9.1,50.7-29.3
	C198.8,282.4,176.4,282.4,181.2,264.5"/>
<path class="st2" d="M117,387.3c-1.9,0-3.5,1.5-3.5,3.4c0,0.9,0.3,1.8,1,2.4c0.6,0.7,1.5,1,2.4,1c0.9,0,1.8-0.4,2.4-1
	c0.7-0.6,1-1.5,1-2.4C120.5,388.8,118.9,387.3,117,387.3 M119.2,392.9c-1.1,1.2-3,1.2-4.2,0.1c0,0,0,0-0.1-0.1
	c-1.2-1.2-1.2-3.1,0-4.3c1.2-1.2,3-1.2,4.2,0c0,0,0,0,0,0C120.3,389.8,120.3,391.7,119.2,392.9"/>
<path class="st2" d="M118.6,389.9c0-0.4-0.2-0.8-0.6-1c-0.3-0.1-0.7-0.2-1-0.1h-1.3v3.8h0.7v-1.5h0.5c0.3,0,0.5,0,0.7,0.1
	c0.3,0.2,0.4,0.5,0.4,0.9v0.4l0,0l0,0h0.6l0,0c0-0.1,0-0.1,0-0.2c0-0.1,0-0.2,0-0.3v-0.3c0-0.2-0.1-0.4-0.2-0.6
	c-0.2-0.2-0.4-0.4-0.6-0.4c0.2,0,0.4,0,0.5-0.1C118.5,390.5,118.7,390.3,118.6,389.9 M117.6,390.6c-0.2,0.1-0.4,0.1-0.6,0.1h-0.6
	v-1.4h0.6c0.3,0,0.6,0,0.8,0.1c0.2,0.1,0.3,0.3,0.3,0.5C118,390.3,117.8,390.5,117.6,390.6"/>
</svg>
